<svg width="24" height="24" viewBox="0 0 24 24" fill="none" xmlns="http://www.w3.org/2000/svg">
<g clip-path="url(#clip0_40000017_448)">
<path d="M12 24C18.6274 24 24 18.6274 24 12C24 5.37258 18.6274 0 12 0C5.37258 0 0 5.37258 0 12C0 18.6274 5.37258 24 12 24Z" fill="#E042DA"/>
<path d="M17.571 10.7489C18.3417 9.97819 17.9991 8.38613 16.8059 7.19289C15.6126 5.99965 14.0206 5.65709 13.2499 6.42776C12.4792 7.19843 12.8218 8.79049 14.015 9.98373C15.2083 11.177 16.8003 11.5195 17.571 10.7489Z" fill="#A4A4F7"/>
<path d="M16.8396 13.1983C16.6062 13.4289 16.3171 13.5953 16.0005 13.6815C14.8297 14.0137 13.1785 13.4372 11.87 12.1291C10.556 10.8151 9.98039 9.1549 10.3224 7.98327C10.4093 7.67249 10.574 7.38898 10.8008 7.15946C11.8778 6.08246 14.1028 6.56122 15.7705 8.22865C17.4382 9.89607 17.9166 12.1213 16.8396 13.1983Z" fill="#C5C5FF"/>
<path d="M16.0005 13.6813C14.8297 14.0135 13.1785 13.437 11.87 12.1289C10.556 10.8148 9.98039 9.15468 10.3224 7.98304C11.4932 7.65084 13.1441 8.22759 14.4523 9.53546C15.7663 10.8495 16.3422 12.5094 16.0005 13.6813Z" fill="#A4A4F7"/>
<path d="M12.4968 9.76471L8.97461 13.2868L10.7126 15.0249L14.2348 11.5027C14.2348 11.5027 13.8869 10.0318 12.4968 9.76471Z" fill="#51518E"/>
<path d="M12.2062 17.832C11.9755 18.06 11.6903 18.2253 11.3777 18.3121C10.2063 18.651 8.54867 18.0748 7.23661 16.7625C5.92735 15.4535 5.35089 13.8009 5.68476 12.6298C5.77096 12.314 5.9371 12.0258 6.16715 11.7929C7.24415 10.7159 9.46934 11.1946 11.1368 12.8623C12.8042 14.53 13.2832 16.755 12.2062 17.832Z" fill="#C5C5FF"/>
<path d="M11.3777 18.3122C10.2063 18.6511 8.54867 18.0749 7.23661 16.7626C5.92735 15.4536 5.35089 13.801 5.68476 12.6299C6.85612 12.2907 8.51349 12.8669 9.82583 14.179C11.1351 15.4882 11.7116 17.1412 11.3777 18.3122Z" fill="#A4A4F7"/>
<path d="M9.95304 18.5396C9.77965 18.711 9.56493 18.8347 9.32968 18.8988C8.45869 19.1467 7.22927 18.718 6.25556 17.7442C5.27487 16.7633 4.84692 15.5232 5.10681 14.6511C5.17191 14.4232 5.29346 14.2153 5.46023 14.0468C6.26142 13.2456 7.91684 13.6015 9.15743 14.8424C10.398 16.0832 10.7542 17.7384 9.95304 18.5396Z" fill="#C5C5FF"/>
<path d="M9.32967 18.8983C8.45869 19.1462 7.22927 18.7174 6.25556 17.7437C5.27487 16.7628 4.84692 15.5227 5.10681 14.6506C5.97807 14.403 7.20694 14.8321 8.18037 15.8055C9.16134 16.7862 9.58902 18.026 9.32967 18.8983Z" fill="#A4A4F7"/>
</g>
<defs>
<clipPath id="clip0_40000017_448">
<rect width="24" height="24" fill="white"/>
</clipPath>
</defs>
</svg>
