<svg width="24" height="24" viewBox="0 0 24 24" fill="none" xmlns="http://www.w3.org/2000/svg">
<g clip-path="url(#clip0_40000017_5796)">
<path d="M24 12C24 18.6275 18.6275 24 12 24C5.3725 24 0 18.6275 0 12C0 5.3725 5.3725 0 12 0C18.6275 0 24 5.3725 24 12Z" fill="#FFBA6B"/>
<path d="M17.4719 16.728C17.4479 16.8721 17.4959 16.992 17.592 17.1119C17.688 17.2081 17.8319 17.28 17.952 17.28H18C18.1199 17.28 18.2401 17.2321 18.336 17.1359C18.432 17.04 18.4799 16.92 18.4799 16.7999V11.712H17.952L17.4719 16.728Z" fill="white"/>
<path d="M18.1924 16.968C18.0963 17.064 17.9763 17.1119 17.8564 17.1119H17.8322C17.7363 17.1119 17.6403 17.088 17.5684 17.04C17.5923 17.064 17.5923 17.088 17.6163 17.1119C17.7123 17.2081 17.8564 17.28 17.9763 17.28H18.0003C18.1202 17.28 18.2404 17.2321 18.3363 17.1359C18.4323 17.04 18.4802 16.92 18.4802 16.7999V12L18.3363 16.632C18.3363 16.752 18.2883 16.8721 18.1924 16.968Z" fill="#E2E2E2"/>
<path d="M18.5044 6.74396V12L17.4482 11.5441V8.78394C17.4242 7.92004 17.8564 7.17609 18.5044 6.74396Z" fill="white"/>
<path d="M17.6879 11.5441V8.61603C17.6879 7.87207 17.9999 7.20007 18.4798 6.74396C17.8318 7.20007 17.4238 7.94403 17.4238 8.78394V11.5681L18.4798 12.024V11.9041L17.6879 11.5441Z" fill="#E2E2E2"/>
<path d="M5.95215 16.7518C5.95215 16.8719 6.00012 17.0159 6.09607 17.1118C6.1922 17.2079 6.31213 17.2559 6.45605 17.2559H6.48004C6.60016 17.2559 6.74408 17.2079 6.84021 17.1118C6.93616 17.0159 6.98413 16.8719 6.98413 16.7518L6.69611 10.3439H6.24017L5.95215 16.7518Z" fill="white"/>
<path d="M6.672 10.3439L6.81592 16.5839C6.81592 16.7039 6.76794 16.848 6.672 16.9439C6.57605 17.0399 6.45593 17.0878 6.31201 17.0878H6.26404C6.16809 17.0878 6.07196 17.0638 6 17.0159C6.02399 17.0399 6.04797 17.0638 6.04797 17.0878C6.14392 17.184 6.26404 17.2319 6.40796 17.2319H6.47992C6.60004 17.2319 6.74396 17.184 6.84009 17.0878C6.93604 16.9919 6.98401 16.848 6.98401 16.7278L6.672 10.3439Z" fill="#E2E2E2"/>
<path d="M7.39181 9.28821C7.27187 6.72015 7.27187 6.72015 7.27187 6.72015H7.17592L7.12777 9.16827H6.86391L6.7438 6.72015H6.64785L6.5519 9.16827H6.28786L6.23989 6.74414H6.14376L6.02382 9.19226H5.75979L5.71181 6.74414H5.61587C5.61587 6.74414 5.61587 6.74414 5.49575 9.31219C5.47176 9.67218 5.51992 10.3682 6.2159 10.3682H6.64785C7.36782 10.3442 7.41579 9.64819 7.39181 9.28821Z" fill="white"/>
<path d="M7.39185 9.28821C7.27191 6.72015 7.27191 6.72015 7.27191 6.72015C7.27191 6.93622 7.27191 7.53625 7.34387 9.1441C7.36786 9.50427 7.31989 10.2003 6.6239 10.2003H6.19196C5.83179 10.2003 5.63989 10.0082 5.54395 9.79211C5.61591 10.0801 5.8078 10.3442 6.21594 10.3442H6.64789C7.36786 10.3442 7.41583 9.64819 7.39185 9.28821Z" fill="#E2E2E2"/>
<path d="M16.2 11.9998C16.2 14.3194 14.3195 16.1999 11.9999 16.1999C9.6803 16.1999 7.7998 14.3194 7.7998 11.9998C7.7998 9.68024 9.6803 7.79974 11.9999 7.79974C14.3195 7.79974 16.2 9.68024 16.2 11.9998Z" fill="white"/>
<path d="M14.5197 12.0002C14.5197 13.392 13.3914 14.5203 11.9996 14.5203C10.6078 14.5203 9.47949 13.392 9.47949 12.0002C9.47949 10.6084 10.6078 9.4801 11.9996 9.4801C13.3914 9.4801 14.5197 10.6084 14.5197 12.0002Z" fill="#E2E2E2"/>
<path d="M11.9996 9.4801C10.6076 9.4801 9.47949 10.6082 9.47949 12.0002C9.47949 13.3922 10.6076 14.5203 11.9996 14.5203C13.3915 14.5203 14.5197 13.3922 14.5197 12.0002C14.5197 10.6082 13.3915 9.4801 11.9996 9.4801ZM14.1115 11.8802C14.1115 13.1041 13.1035 14.1121 11.8796 14.1121C10.6556 14.1121 9.67157 13.1521 9.64758 11.9282C9.67157 10.6802 10.6796 9.67218 11.9516 9.62421C13.1515 9.67218 14.1115 10.6562 14.1115 11.8802Z" fill="#C4C4C4"/>
</g>
<defs>
<clipPath id="clip0_40000017_5796">
<rect width="24" height="24" fill="white"/>
</clipPath>
</defs>
</svg>
