<svg width="24" height="24" viewBox="0 0 24 24" fill="none" xmlns="http://www.w3.org/2000/svg">
<g clip-path="url(#clip0_40000017_3750)">
<path d="M24 12C24 18.6275 18.6275 24 12 24C5.3725 24 0 18.6275 0 12C0 5.3725 5.3725 0 12 0C18.6275 0 24 5.3725 24 12Z" fill="#8FA0B7"/>
<path d="M18.9841 15.5282C18.9841 15.6721 18.9361 15.8402 18.816 15.9362C18.696 16.0561 18.5521 16.1041 18.408 16.1041H5.61609C5.47198 16.1041 5.30408 16.0561 5.20813 15.9362C5.08801 15.816 5.04004 15.6721 5.04004 15.5282V15.4321H19.0081V15.5282H18.9841Z" fill="white"/>
<path d="M17.6885 15.048C17.6885 15.1439 17.6405 15.2401 17.5685 15.312C17.4964 15.384 17.4005 15.4319 17.3045 15.4319H6.69647C6.60052 15.4319 6.50458 15.384 6.43243 15.312C6.36047 15.2401 6.3125 15.1439 6.3125 15.048V8.25604C6.3125 8.15991 6.36047 8.06396 6.43243 7.992C6.50458 7.92004 6.60052 7.87207 6.69647 7.87207H17.3285C17.4244 7.87207 17.5206 7.92004 17.5925 7.992C17.6645 8.06396 17.7125 8.15991 17.7125 8.25604V15.048H17.6885Z" fill="#3D4857"/>
<path d="M6.91211 8.47192H17.112V14.8319H6.91211V8.47192Z" fill="#586473"/>
<path d="M10.6797 15.4321H13.3437V15.6721H10.6797V15.4321Z" fill="#C4C4C4"/>
<path d="M6.3125 15.744H6.91254V15.8159H6.3125V15.744Z" fill="#C4C4C4"/>
<path d="M6.3125 15.744H6.60052V15.8159H6.3125V15.744Z" fill="#90C3F0"/>
<path d="M12.1198 8.18408C12.1198 8.25018 12.0661 8.30402 11.9998 8.30402C11.9335 8.30402 11.8799 8.25018 11.8799 8.18408C11.8799 8.1178 11.9335 8.06396 11.9998 8.06396C12.0661 8.06396 12.1198 8.1178 12.1198 8.18408Z" fill="#586473"/>
</g>
<defs>
<clipPath id="clip0_40000017_3750">
<rect width="24" height="24" fill="white"/>
</clipPath>
</defs>
</svg>
