<svg width="24" height="24" viewBox="0 0 24 24" fill="none" xmlns="http://www.w3.org/2000/svg">
<g clip-path="url(#clip0_40000017_3921)">
<path d="M12 23.9999C18.6274 23.9999 23.9999 18.6274 23.9999 12C23.9999 5.37257 18.6274 0 12 0C5.37257 0 0 5.37257 0 12C0 18.6274 5.37257 23.9999 12 23.9999Z" fill="#183C9A"/>
<path d="M8.02452 17.5572H7.01066C6.65259 17.5572 6.3623 17.267 6.3623 16.9089V16.0168H8.67287V16.9089C8.67282 17.267 8.38259 17.5572 8.02452 17.5572Z" fill="#64798A"/>
<path d="M15.2184 16.4019H5.91699V8.21323C5.91699 6.99112 6.90773 6.00037 8.12982 6.00037H13.3298C14.3728 6.00037 15.2185 6.84595 15.2185 7.88908V16.4019H15.2184Z" fill="#44C4A1"/>
<path d="M13.0271 6.98138H8.43555V7.89964H13.0271V6.98138Z" fill="#D5D6DB"/>
<path d="M8.1386 15.2572C8.62937 15.2572 9.02721 14.8594 9.02721 14.3686C9.02721 13.8778 8.62937 13.48 8.1386 13.48C7.64784 13.48 7.25 13.8778 7.25 14.3686C7.25 14.8594 7.64784 15.2572 8.1386 15.2572Z" fill="#FCD462"/>
<path d="M6.0052 12.2676H5.47646C5.16316 12.2676 4.90918 12.0136 4.90918 11.7003V10.2281C4.90918 9.91475 5.16316 9.66077 5.47646 9.66077H6.0052V12.2676Z" fill="#3EA69B"/>
<path d="M15.2168 12.2676H15.7455C16.0588 12.2676 16.3128 12.0136 16.3128 11.7003V10.2281C16.3128 9.91475 16.0588 9.66077 15.7455 9.66077H15.2168V12.2676Z" fill="#3EA69B"/>
<path d="M14.0928 9.11414H7.25V12.8169H14.0928V9.11414Z" fill="#F6C358"/>
<path d="M7.25098 12.817V9.11414H14.0937L7.25098 12.817Z" fill="#FCD462"/>
<path d="M13.1297 17.853H12.6874C12.3514 17.853 12.0791 17.5806 12.0791 17.2447V16.7866H13.7379V17.2447C13.7379 17.5806 13.4656 17.853 13.1297 17.853Z" fill="#64798A"/>
<path d="M17.1776 17.853H16.7352C16.3993 17.853 16.127 17.5806 16.127 17.2447V16.7866H17.7858V17.2447C17.7858 17.5806 17.5135 17.853 17.1776 17.853Z" fill="#64798A"/>
<path d="M18.5762 15.054H17.8984V14.4319H18.5762C18.7009 14.4319 18.8019 14.5329 18.8019 14.6576V14.8282C18.8019 14.9529 18.7009 15.054 18.5762 15.054Z" fill="#D15241"/>
<path d="M11.4006 15.054H12.0783V14.4319H11.4006C11.2759 14.4319 11.1748 14.5329 11.1748 14.6576V14.8282C11.1748 14.9529 11.2759 15.054 11.4006 15.054Z" fill="#D15241"/>
<path d="M18.0039 16.9645H11.9609V14.1623C11.9609 13.1904 12.7488 12.4025 13.7207 12.4025H16.2441C17.216 12.4025 18.0039 13.1904 18.0039 14.1623V16.9645Z" fill="#E56353"/>
<path d="M12.6312 14.6835H17.3412C17.3412 14.6835 17.5334 13.6677 16.6227 12.9048C16.5528 12.8462 16.4621 12.8173 16.3708 12.8173H13.6485C13.5413 12.8173 13.4395 12.8596 13.3633 12.9349C13.087 13.2076 12.4689 13.9183 12.6312 14.6835Z" fill="#2D93BA"/>
<path d="M13.0268 6.98138H10.6719V7.89964H13.0268V6.98138Z" fill="#E1E6E9"/>
<path d="M12.6312 14.6835C12.4689 13.9183 13.0871 13.2076 13.3633 12.9349C13.4396 12.8596 13.5414 12.8173 13.6485 12.8173H16.3708C16.4621 12.8173 16.5528 12.8462 16.6227 12.9048L12.6312 14.6835Z" fill="#27A2DB"/>
<path d="M13.3194 16.2072C13.6043 16.2072 13.8352 15.9763 13.8352 15.6915C13.8352 15.4067 13.6043 15.1758 13.3194 15.1758C13.0346 15.1758 12.8037 15.4067 12.8037 15.6915C12.8037 15.9763 13.0346 16.2072 13.3194 16.2072Z" fill="#FCD462"/>
<path d="M16.4405 16.2072C16.7254 16.2072 16.9562 15.9763 16.9562 15.6915C16.9562 15.4067 16.7254 15.1758 16.4405 15.1758C16.1557 15.1758 15.9248 15.4067 15.9248 15.6915C15.9248 15.9763 16.1557 16.2072 16.4405 16.2072Z" fill="#FCD462"/>
</g>
<defs>
<clipPath id="clip0_40000017_3921">
<rect width="24" height="24" fill="white"/>
</clipPath>
</defs>
</svg>
