<svg width="24" height="24" viewBox="0 0 24 24" fill="none" xmlns="http://www.w3.org/2000/svg">
<g clip-path="url(#clip0_40000017_1985)">
<path d="M12 24C18.6274 24 24 18.6274 24 12C24 5.37258 18.6274 0 12 0C5.37258 0 0 5.37258 0 12C0 18.6274 5.37258 24 12 24Z" fill="#9E00FF"/>
<path d="M16.5429 7.86983C16.5429 9.34313 15.0818 10.5851 13.2321 12.157C12.9136 12.4279 12.5828 12.7088 12.2457 13.003L11.9726 13.2412L11.6995 13.003C11.3624 12.7088 11.0317 12.4279 10.7132 12.157C8.86345 10.5851 7.40234 9.34313 7.40234 7.86983C7.40234 6.38103 8.42083 4.92047 9.89523 4.90912C10.4567 4.90468 11.2223 5.1537 11.9726 6.01651C12.4871 5.41409 13.2269 4.91031 14.0223 4.90912C15.1414 4.90687 16.4759 6.01623 16.5407 7.74602C16.5421 7.78785 16.5429 7.82912 16.5429 7.86983Z" fill="#FF7366"/>
<path d="M5.17741 8.26068C6.1821 8.26068 6.13815 9.47344 6.15562 10.4128V10.8366C6.17227 12.0415 6.2803 13.5954 7.70121 14.6757C8.02529 14.925 8.43246 15.141 8.91445 15.3322C8.94766 15.2657 9.18035 14.6424 9.21359 14.5511C8.90614 14.4347 8.61533 14.2935 8.29122 14.0774C7.47691 13.3877 7.4104 13.0636 7.46857 12.914C7.56829 12.6648 8.10839 12.7313 8.37429 12.7811C9.14709 12.9307 10.1609 13.4376 10.8007 14.0774C11.2494 14.4846 11.5569 14.9998 11.5569 15.5815V19.0909H8.23303V18.6754C8.23303 17.7115 7.85076 17.4013 7.21928 16.9359C6.24703 16.213 4.90918 15.2241 4.90918 11.1691V8.26068H5.17741Z" fill="#FFE1BA"/>
<path d="M12.3875 9.09165V8.26068H11.972H11.5566V9.09165H10.7256V9.92261H11.5566V10.7536H11.972H12.3875V9.92261H13.2185V9.09165H12.3875Z" fill="#E6F2F2"/>
<path d="M12.3881 9.92261H13.2191V9.09165H12.3881V8.26068H11.9727V10.7536H12.3881V9.92261Z" fill="#CFE6E6"/>
<path d="M18.7949 8.26068C17.7902 8.26068 17.8064 9.47344 17.789 10.4128V10.8366C17.7723 12.0415 17.6643 13.5954 16.2434 14.6757C15.9193 14.925 15.5121 15.141 15.0301 15.3322C14.9969 15.2657 14.7642 14.6424 14.731 14.5511C15.0384 14.4347 15.3292 14.2935 15.6534 14.0774C16.4677 13.3877 16.5342 13.0636 16.476 12.914C16.3763 12.6648 15.8362 12.7313 15.5703 12.7811C14.7975 12.9307 13.7837 13.4376 13.1438 14.0774C12.6952 14.4846 12.3877 14.9998 12.3877 15.5815V19.0909H15.7115V18.6754C15.7115 17.7115 16.0938 17.4013 16.7253 16.9359C17.6975 16.213 19.0631 15.2241 19.0631 11.1691V8.26068H18.7949Z" fill="#FFE1BA"/>
</g>
<defs>
<clipPath id="clip0_40000017_1985">
<rect width="24" height="24" fill="white"/>
</clipPath>
</defs>
</svg>
