<svg width="24" height="24" viewBox="0 0 24 24" fill="none" xmlns="http://www.w3.org/2000/svg">
<g clip-path="url(#clip0_40000017_5529)">
<path d="M12 24C18.6274 24 24 18.6274 24 12C24 5.37258 18.6274 0 12 0C5.37258 0 0 5.37258 0 12C0 18.6274 5.37258 24 12 24Z" fill="#FFDC00"/>
<path d="M17.5941 7.46361V9.33607H14.5404H12.5459V7.46361C12.5459 7.34361 12.6432 7.24634 12.7632 7.24634H17.3769C17.4968 7.24634 17.5941 7.34361 17.5941 7.46361Z" fill="#F07281"/>
<path d="M15.9155 8.1571C15.7869 8.1571 15.6827 8.05291 15.6827 7.92433V7.07855C15.6827 6.74053 15.4077 6.46557 15.0697 6.46557C14.7317 6.46557 14.4567 6.74053 14.4567 7.07855V7.92433C14.4567 8.05291 14.3525 8.1571 14.224 8.1571C14.0954 8.1571 13.9912 8.05291 13.9912 7.92433V7.07855C13.9912 6.48383 14.475 6 15.0698 6C15.6645 6 16.1483 6.48383 16.1483 7.07855V7.92433C16.1482 8.05288 16.044 8.1571 15.9155 8.1571Z" fill="#918291"/>
<path d="M17.5941 7.46361V9.33607H14.5404H12.5459V7.46361C12.5459 7.34361 12.6432 7.24634 12.7632 7.24634H17.3769C17.4968 7.24634 17.5941 7.34361 17.5941 7.46361Z" fill="#00D509"/>
<path d="M15.9155 8.1571C15.7869 8.1571 15.6827 8.05291 15.6827 7.92433V7.07855C15.6827 6.74053 15.4077 6.46557 15.0697 6.46557C14.7317 6.46557 14.4567 6.74053 14.4567 7.07855V7.92433C14.4567 8.05291 14.3525 8.1571 14.224 8.1571C14.0954 8.1571 13.9912 8.05291 13.9912 7.92433V7.07855C13.9912 6.48383 14.475 6 15.0698 6C15.6645 6 16.1483 6.48383 16.1483 7.07855V7.92433C16.1482 8.05288 16.044 8.1571 15.9155 8.1571Z" fill="#918291"/>
<path d="M13.2298 8.00908V9.88154H10.1761H8.18164V8.00908C8.18164 7.88908 8.27892 7.79181 8.39891 7.79181H13.0126C13.1326 7.79181 13.2298 7.88908 13.2298 8.00908Z" fill="#E672F0"/>
<path d="M11.5512 8.70257C11.4227 8.70257 11.3185 8.59838 11.3185 8.4698V7.62402C11.3185 7.286 11.0435 7.01104 10.7055 7.01104C10.3675 7.01104 10.0925 7.286 10.0925 7.62402V8.4698C10.0925 8.59838 9.98827 8.70257 9.85972 8.70257C9.73117 8.70257 9.62695 8.59838 9.62695 8.4698V7.62402C9.62695 7.0293 10.1108 6.54547 10.7055 6.54547C11.3002 6.54547 11.784 7.0293 11.784 7.62402V8.4698C11.784 8.59835 11.6798 8.70257 11.5512 8.70257Z" fill="#918291"/>
<path d="M7.7252 15.8158H17.5073L18.4229 9.06189H6.80957L7.7252 15.8158Z" fill="#008CC3"/>
<path d="M18.4229 9.06189H11.7012V15.8158H17.5073L18.4229 9.06189Z" fill="#0074A3"/>
<path d="M6.80957 9.06189L7.7252 15.8158H12.6162V9.06189H6.80957Z" fill="#008CC3"/>
<path d="M8.11523 10.0712L8.7207 14.8H9.74497L9.29873 10.0712H8.11523Z" fill="#00BAFF"/>
<path d="M15.9336 10.0712L15.4873 14.8H16.5116L17.117 10.0712H15.9336Z" fill="#008CC3"/>
<path d="M10.6621 10.0712L10.9497 14.8H11.8765L11.733 10.0712H10.6621Z" fill="#00BAFF"/>
<path d="M13.4999 10.0712L13.3564 14.8H14.2833L14.5709 10.0712H13.4999Z" fill="#008CC3"/>
<path d="M15.7858 19.2505C16.3341 19.2505 16.7786 18.806 16.7786 18.2577C16.7786 17.7093 16.3341 17.2648 15.7858 17.2648C15.2375 17.2648 14.793 17.7093 14.793 18.2577C14.793 18.806 15.2375 19.2505 15.7858 19.2505Z" fill="#00131E"/>
<path d="M9.30826 19.2505C9.85658 19.2505 10.3011 18.806 10.3011 18.2577C10.3011 17.7093 9.85658 17.2648 9.30826 17.2648C8.75993 17.2648 8.31543 17.7093 8.31543 18.2577C8.31543 18.806 8.75993 19.2505 9.30826 19.2505Z" fill="#00263F"/>
<path d="M17.3779 17.6696H7.61109L6.13814 8.25414H4.90918V7.44366H6.83166L8.30461 16.8592H17.3779V17.6696Z" fill="#005C83"/>
<path d="M17.3777 16.8595H12.6162V17.67H17.3777V16.8595Z" fill="#00263F"/>
</g>
<defs>
<clipPath id="clip0_40000017_5529">
<rect width="24" height="24" fill="white"/>
</clipPath>
</defs>
</svg>
