<svg width="24" height="24" viewBox="0 0 24 24" fill="none" xmlns="http://www.w3.org/2000/svg">
<g clip-path="url(#clip0_40000017_5374)">
<path d="M12 24C18.6094 24 24 18.6093 24 12C24 5.39062 18.6094 0 12 0C5.39062 0 0 5.39062 0 12C0 18.6093 5.39062 24 12 24Z" fill="#FFCA4F"/>
<path d="M8.88462 6.76288H17.2758L19.1799 15.1679L18.4826 15.1714L18.466 18.1389L19.1847 18.1426L19.1801 18.6385H7.83699C6.76346 18.5552 6.85916 16.647 6.80176 16.1362L7.75744 7.59227C7.76119 7.21255 8.15617 6.76299 8.88473 6.76299L8.88462 6.76288Z" fill="#20D0C2"/>
<path d="M8.88486 6.76262H9.68855L8.95702 18.6381H7.83701C6.52149 18.489 6.47137 16.3967 6.89849 15.2723L7.75745 7.5918C7.7612 7.21215 8.15629 6.76251 8.88474 6.76251L8.88486 6.76262Z" fill="#1A91A1"/>
<path d="M7.98291 15.1662H18.9624C18.4641 16.1841 18.477 17.1879 18.9624 18.1784H7.98291C6.80508 18.1784 6.80527 15.1662 7.98291 15.1662Z" fill="white"/>
<path d="M7.18426 15.9946H18.6682C18.6616 16.0247 18.6553 16.0548 18.6496 16.085H7.16234C7.16913 16.0545 7.17631 16.0242 7.18426 15.9946ZM18.6146 16.3115C18.6109 16.3416 18.6079 16.3717 18.6052 16.4019H7.11218C7.11492 16.3716 7.11856 16.3414 7.12243 16.3115H18.6146ZM18.5937 16.6284C18.5933 16.6585 18.5933 16.6887 18.5937 16.7188H7.09998C7.09949 16.6887 7.09949 16.6585 7.09998 16.6284H18.5937ZM18.6054 16.9451C18.6081 16.9753 18.6112 17.0055 18.6148 17.0356H7.12273C7.11879 17.0056 7.11533 16.9754 7.1124 16.9451H18.6054ZM18.6498 17.262C18.6557 17.2921 18.6619 17.3223 18.6685 17.3524H7.18487C7.17691 17.3227 7.16958 17.2925 7.16271 17.262H18.6499H18.6498ZM18.7268 17.5789C18.7357 17.6091 18.7451 17.6392 18.7548 17.6693H7.30088C7.2868 17.6401 7.27332 17.6098 7.26071 17.5789H18.7267H18.7268ZM18.8366 17.8958C18.8486 17.9258 18.861 17.956 18.8739 17.9862H7.52228C7.49352 17.9585 7.46634 17.9283 7.44055 17.8958H18.8365H18.8366Z" fill="#ECF0F1"/>
<path d="M11.3232 16.7101H13.039V20.5163L12.174 19.2746L11.3234 20.5163V16.7101H11.3232Z" fill="#FF5B61"/>
<path d="M6.02094 12.0884L17.6526 7.92765C18.9555 7.81963 19.3457 10.4701 18.4912 10.7202L7.12691 14.9853C6.48147 15.2285 5.85041 14.1907 5.79416 13.1732C5.76424 12.6328 5.91127 12.6491 6.52686 12.4079L6.02097 12.0885L6.02094 12.0884Z" fill="white"/>
<path d="M18.8564 10.3242C18.7823 10.5246 18.6615 10.6705 18.4907 10.7206L7.12646 14.9856C6.92883 15.0601 6.73254 15.0143 6.55371 14.8859C6.87615 14.9182 7.05242 14.8753 7.35917 14.586L18.8564 10.3242Z" fill="#ECF0F1"/>
<path d="M13.6546 9.35913C14.5185 9.48359 15.1356 11.5346 14.7039 12.1419L13.1334 12.7313C13.4183 11.7693 12.7975 10.1662 11.9346 9.97494L13.6546 9.35913Z" fill="#FFBA1B"/>
<path d="M16.437 13.5096L14.7039 12.1417L13.1333 12.7311L14.4448 14.2553L15.0506 13.3498L16.437 13.5096Z" fill="#F5A209"/>
<path d="M6.4513 12.4389L6.52722 12.4072C7.0022 12.5034 7.83515 14.2055 6.92242 14.5834C6.27315 14.852 5.9708 13.4438 5.99445 12.977C6.27277 12.7775 6.57321 13.6186 6.47702 13.6377L6.2843 13.6758C6.2843 13.6758 6.29019 14.0439 6.47702 14.0693L7.22252 13.828C7.22252 13.828 7.16196 12.7428 6.45141 12.4389H6.4513Z" fill="#ECF0F1"/>
<path d="M9.13286 15.7976H17.9759H18.4801H18.7191C18.7786 15.5885 18.8595 15.3787 18.9626 15.1681C18.9629 15.1675 18.9632 15.1668 18.9635 15.1661H18.1786H9.17168H7.9839C6.89411 15.1661 6.81267 17.7456 7.73985 18.1305C7.4259 17.2421 7.67674 15.7976 8.49233 15.7976H9.13274H9.13286Z" fill="#ECF0F1"/>
<path d="M12.7893 6.40601L12.8837 8.05594C12.3472 8.9653 10.6346 9.64028 8.94842 9.62312C7.34152 9.60686 5.75625 8.94019 5.32038 8.10054L5.31152 6.48402L8.90175 7.47512L12.7893 6.40612V6.40601Z" fill="#666666"/>
<path d="M3.09668 5.83207L8.90174 3.87097L14.7069 5.83207L8.90174 7.7931L3.09668 5.83207Z" fill="#807D7D"/>
<path d="M5.15997 9.84687L4.89418 11.5488C4.88994 11.5765 4.98339 11.6141 5.02803 11.5586C5.08664 11.6288 5.16432 11.6001 5.18756 11.5515C5.217 11.5997 5.28634 11.6263 5.33665 11.5544C5.38126 11.6098 5.48094 11.5712 5.47366 11.5247L5.20953 9.84529C5.20284 9.82029 5.16353 9.82453 5.16008 9.84676L5.15997 9.84687Z" fill="#FF5B61"/>
<path d="M8.94125 5.33481C8.97632 5.32437 9.01334 5.34427 9.02377 5.37941C9.03421 5.41448 9.01431 5.4515 8.97917 5.46193L5.24555 6.58448V9.84019C5.24555 9.87683 5.21582 9.90656 5.17917 9.90656C5.14253 9.90656 5.11279 9.87683 5.11279 9.84019V6.53514C5.11279 6.50657 5.13142 6.48018 5.16018 6.47162L8.94114 5.33477L8.94125 5.33481Z" fill="white"/>
<path d="M5.18432 10.0626C5.32939 10.0626 5.44777 9.9442 5.44777 9.79906C5.44777 9.65391 5.32939 9.53564 5.18432 9.53564C5.03917 9.53564 4.9209 9.65402 4.9209 9.79906C4.9209 9.94424 5.03928 10.0626 5.18432 10.0626Z" fill="white"/>
<path d="M5.39795 9.73286C5.39795 9.84316 5.32782 9.93691 5.22986 9.97224C5.20287 9.98189 5.17392 9.98722 5.14358 9.98722C5.14189 9.98722 5.14024 9.98722 5.13866 9.98722C5.0519 9.98553 4.97579 9.94044 4.93115 9.8729C4.95766 9.96507 5.03316 10.0366 5.1277 10.0574C5.14591 10.0613 5.16491 10.0635 5.18443 10.0635C5.20452 10.0635 5.22423 10.0612 5.24312 10.0569C5.36041 10.0302 5.44785 9.92539 5.44785 9.79995C5.44785 9.72471 5.41635 9.65694 5.36593 9.60889C5.38631 9.64553 5.39803 9.68777 5.39803 9.73278L5.39795 9.73286Z" fill="#ECF0F1"/>
</g>
<defs>
<clipPath id="clip0_40000017_5374">
<rect width="24" height="24" fill="white"/>
</clipPath>
</defs>
</svg>
