<svg width="24" height="24" viewBox="0 0 24 24" fill="none" xmlns="http://www.w3.org/2000/svg">
<g clip-path="url(#clip0_40000017_6735)">
<path d="M12 24C18.6274 24 24 18.6274 24 12C24 5.37258 18.6274 0 12 0C5.37258 0 0 5.37258 0 12C0 18.6274 5.37258 24 12 24Z" fill="#AD9AF6"/>
<path d="M16.2712 19.161C14.6753 19.161 13.377 17.8626 13.377 16.2668C13.377 14.6709 14.6753 13.3726 16.2712 13.3726C17.8671 13.3726 19.1654 14.6709 19.1654 16.2668C19.1654 17.8626 17.867 19.161 16.2712 19.161ZM16.2712 13.8284C14.9267 13.8284 13.8328 14.9223 13.8328 16.2667C13.8328 17.6113 14.9267 18.7051 16.2712 18.7051C17.6157 18.7051 18.7095 17.6113 18.7095 16.2667C18.7095 14.9223 17.6157 13.8284 16.2712 13.8284Z" fill="#E64B55"/>
<path d="M16.2713 13.6007C17.7438 13.6007 18.9376 14.7944 18.9376 16.267C18.9376 17.7395 17.7438 18.9333 16.2713 18.9333C14.7988 18.9333 13.605 17.7395 13.605 16.267C13.605 14.7944 14.7987 13.6007 16.2713 13.6007ZM16.2713 13.1793C14.5687 13.1793 13.1836 14.5644 13.1836 16.267C13.1836 17.9696 14.5687 19.3547 16.2713 19.3547C17.9738 19.3547 19.359 17.9696 19.359 16.267C19.3589 14.5644 17.9738 13.1793 16.2713 13.1793Z" fill="#50555A"/>
<path d="M16.2715 13.1793C16.2669 13.1793 16.2624 13.1795 16.2578 13.1795V13.6009C16.2624 13.6009 16.2669 13.6007 16.2715 13.6007C17.7441 13.6007 18.9378 14.7945 18.9378 16.267C18.9378 17.7395 17.7441 18.9333 16.2715 18.9333C16.2669 18.9333 16.2624 18.9331 16.2578 18.9331V19.3545C16.2624 19.3545 16.2669 19.3547 16.2715 19.3547C17.974 19.3547 19.3592 17.9696 19.3592 16.267C19.3592 14.5644 17.974 13.1793 16.2715 13.1793Z" fill="#373C41"/>
<path d="M16.2715 15.5289C15.8644 15.5289 15.5332 15.86 15.5332 16.2671C15.5332 16.6742 15.8644 17.0054 16.2715 17.0054C16.6786 17.0054 17.0098 16.6742 17.0098 16.2671C17.0097 15.86 16.6785 15.5289 16.2715 15.5289Z" fill="#B9B9BE"/>
<path d="M16.2715 15.5284C15.8644 15.5284 15.5332 15.8596 15.5332 16.2667C15.5332 16.6738 15.8644 17.005 16.2715 17.005C16.6786 17.005 17.0098 16.6738 17.0098 16.2667C17.0097 15.8596 16.6785 15.5284 16.2715 15.5284Z" fill="#B9B9BE"/>
<path d="M7.34147 19.161C5.7456 19.161 4.44727 17.8626 4.44727 16.2668C4.44727 14.6709 5.7456 13.3726 7.34147 13.3726C8.93735 13.3726 10.2357 14.6709 10.2357 16.2668C10.2357 17.8626 8.93735 19.161 7.34147 19.161ZM7.34147 13.8284C5.99693 13.8284 4.90313 14.9223 4.90313 16.2667C4.90313 17.6113 5.99699 18.7051 7.34147 18.7051C8.68595 18.7051 9.77982 17.6113 9.77982 16.2667C9.77985 14.9223 8.68601 13.8284 7.34147 13.8284Z" fill="#E64B55"/>
<path d="M7.34157 13.6007C8.81412 13.6007 10.0078 14.7944 10.0078 16.267C10.0078 17.7395 8.81409 18.9333 7.34157 18.9333C5.86905 18.9333 4.67529 17.7395 4.67529 16.267C4.67529 14.7944 5.86905 13.6007 7.34157 13.6007ZM7.34157 13.1793C5.63903 13.1793 4.25391 14.5644 4.25391 16.267C4.25391 17.9696 5.63903 19.3547 7.34157 19.3547C9.04411 19.3547 10.4293 17.9696 10.4293 16.267C10.4293 14.5644 9.04414 13.1793 7.34157 13.1793Z" fill="#50555A"/>
<path d="M7.34182 13.1793C7.33723 13.1793 7.33269 13.1795 7.32812 13.1795V13.6009C7.33272 13.6009 7.33723 13.6007 7.34182 13.6007C8.81438 13.6007 10.0081 14.7945 10.0081 16.267C10.0081 17.7395 8.81438 18.9333 7.34182 18.9333C7.33723 18.9333 7.33269 18.9331 7.32812 18.9331V19.3545C7.33272 19.3545 7.33723 19.3547 7.34182 19.3547C9.04436 19.3547 10.4295 17.9696 10.4295 16.267C10.4295 14.5644 9.04439 13.1793 7.34182 13.1793Z" fill="#373C41"/>
<path d="M7.3418 15.5289C6.93472 15.5289 6.60352 15.86 6.60352 16.2671C6.60352 16.6742 6.93469 17.0054 7.3418 17.0054C7.74891 17.0054 8.08009 16.6742 8.08009 16.2671C8.08009 15.86 7.74891 15.5289 7.3418 15.5289Z" fill="#B9B9BE"/>
<path d="M10.5115 16.2217C10.3746 16.2217 10.2447 16.1407 10.189 16.0063L8.32945 11.5222C8.2556 11.3441 8.3401 11.14 8.51813 11.0661C8.69619 10.9923 8.90032 11.0768 8.97417 11.2548L10.8337 15.739C10.9075 15.917 10.8231 16.1212 10.645 16.195C10.6013 16.2132 10.556 16.2217 10.5115 16.2217Z" fill="#46738C"/>
<path d="M10.5106 16.2217C10.4266 16.2217 10.3423 16.1915 10.2753 16.1303C10.133 16.0003 10.1231 15.7795 10.2531 15.6373L13.654 11.9155L8.75155 12.3202L7.06482 15.5237H8.75977C8.9525 15.5237 9.10876 15.68 9.10876 15.8727C9.10876 16.0654 8.95253 16.2217 8.75977 16.2217H6.48667C6.3644 16.2217 6.25105 16.1577 6.18791 16.053C6.12474 15.9484 6.12092 15.8183 6.17787 15.7101L8.22323 11.8256C8.27881 11.72 8.38444 11.6502 8.50329 11.6403L14.4827 11.1468C14.6258 11.1352 14.7614 11.2119 14.8247 11.3408C14.8879 11.4696 14.8659 11.6241 14.769 11.73L10.7684 16.1081C10.6995 16.1834 10.6052 16.2217 10.5106 16.2217Z" fill="#55879B"/>
<path d="M9.76767 11.7681H7.46311C7.17013 11.7681 6.93262 11.5306 6.93262 11.2377C6.93262 10.9447 7.17013 10.7072 7.46311 10.7072H9.76767C10.0607 10.7072 10.2982 10.9447 10.2982 11.2377C10.2982 11.5306 10.0607 11.7681 9.76767 11.7681Z" fill="#B9CDD2"/>
<path d="M15.9827 16.2219C15.8365 16.2219 15.7002 16.1292 15.6516 15.9828L13.6155 9.85404C13.5841 9.75957 13.5945 9.65614 13.6442 9.56986C13.6939 9.48358 13.7781 9.42262 13.8756 9.40232L15.4518 9.07438C15.6406 9.03519 15.8253 9.15628 15.8646 9.34495C15.9038 9.53363 15.7827 9.71844 15.594 9.75769L14.4014 10.0058L16.314 15.7627C16.3748 15.9456 16.2757 16.1431 16.0928 16.2039C16.0563 16.2161 16.0192 16.2219 15.9827 16.2219Z" fill="#46738C"/>
<path d="M10.2466 16.5848C9.85325 16.4386 9.65293 16.0012 9.79915 15.6078L10.9657 12.4698L8.63896 10.9329C8.28883 10.7016 8.19248 10.2302 8.42376 9.88011C8.65502 9.52998 9.12643 9.43363 9.4765 9.66491L12.3069 11.5347C12.6019 11.7295 12.7235 12.102 12.6003 12.4334L11.2234 16.1373C11.0773 16.5306 10.6399 16.731 10.2466 16.5848Z" fill="#FFB69E"/>
<path d="M13.0709 7.37176L11.9433 6.1735C11.7647 5.98379 11.5158 5.87625 11.2553 5.8764C10.9948 5.87652 10.7459 5.98431 10.5676 6.17422L7.86264 9.0547C7.65939 9.27114 7.56292 9.56675 7.59936 9.86145C7.6358 10.1561 7.8014 10.4194 8.05129 10.5797L9.91753 11.7777L9.91756 11.7776L10.5719 12.2099L11.6746 11.1171L11.0232 10.6868L13.0464 8.6908C13.4114 8.33072 13.4222 7.74515 13.0709 7.37176Z" fill="#3C5064"/>
<path d="M7.60645 9.57047C7.63914 9.37913 7.72726 9.19925 7.86301 9.0547L10.568 6.17422C10.7463 5.98434 10.9952 5.87656 11.2557 5.8764C11.5162 5.87628 11.7651 5.98379 11.9437 6.1735L13.0712 7.37176C13.4226 7.74515 13.4117 8.33069 13.0467 8.69077L11.0235 10.6868L7.60645 9.57047Z" fill="#FFA50A"/>
<path d="M14.1182 6.83075C14.8901 6.83075 15.5157 6.20506 15.5157 5.43323C15.5157 4.6614 14.8901 4.03571 14.1182 4.03571C13.3464 4.03571 12.7207 4.6614 12.7207 5.43323C12.7207 6.20506 13.3464 6.83075 14.1182 6.83075Z" fill="#FFB69E"/>
<path d="M11.9612 4.08186C12.0824 3.74373 12.7606 3.96673 13.5293 3.89684C14.7132 3.78921 15.299 4.01194 15.7047 4.66854C15.8606 4.92085 15.83 5.26146 15.7762 5.55994C15.7667 5.61284 15.7342 5.6588 15.6876 5.68548C15.6409 5.71215 15.5849 5.71681 15.5344 5.69824C13.6804 5.01638 11.7099 4.78322 11.9612 4.08186Z" fill="#FA503C"/>
<path d="M12.806 9.73895C12.6223 9.71415 12.4573 9.6097 12.3565 9.4513L10.7015 6.84946C10.5139 6.5544 10.6009 6.16307 10.896 5.97539C11.191 5.78774 11.5824 5.87475 11.77 6.16982L13.2428 8.48523L15.4326 8.52902C15.7824 8.53613 16.06 8.82511 16.053 9.17474C16.046 9.52433 15.7569 9.8021 15.4073 9.79511L12.8781 9.74455C12.8538 9.74403 12.8297 9.74216 12.806 9.73895Z" fill="#FFB69E"/>
<path d="M11.5221 8.13953L12.5722 7.43085L11.77 6.16981C11.5824 5.87477 11.191 5.78774 10.896 5.97539C10.6009 6.16306 10.5139 6.55439 10.7015 6.84946L11.5221 8.13953Z" fill="#FA870A"/>
</g>
<defs>
<clipPath id="clip0_40000017_6735">
<rect width="24" height="24" fill="white"/>
</clipPath>
</defs>
</svg>
