<svg width="24" height="24" viewBox="0 0 24 24" fill="none" xmlns="http://www.w3.org/2000/svg">
<g clip-path="url(#clip0_40000017_4869)">
<path d="M24 12C24 18.6275 18.6275 24 12 24C5.3725 24 0 18.6275 0 12C0 5.3725 5.3725 0 12 0C18.6275 0 24 5.3725 24 12Z" fill="#90C3F0"/>
<path d="M10.1592 6.67492L10.4192 6.56555L11.2401 8.51628L10.9799 8.62586L10.1592 6.67492Z" fill="#586473"/>
<path d="M12.5625 8.49657L13.3832 6.54584L13.6432 6.65542L12.8226 8.60593L12.5625 8.49657Z" fill="#586473"/>
<path d="M13.7115 7.09668C13.3165 6.89904 12.6392 6.75803 11.9055 6.75803C11.1718 6.75803 10.4945 6.87084 10.0994 7.09668L9.81738 6.5886C10.297 6.33477 11.059 6.19354 11.9055 6.19354C12.7238 6.19354 13.5139 6.33477 13.9935 6.5886L13.7115 7.09668Z" fill="#3D4857"/>
<path d="M19.4957 17.0577C19.4957 17.3399 19.2701 17.5655 18.9879 17.5655H4.82232C4.54008 17.5655 4.31445 17.3399 4.31445 17.0577V7.94323C4.31445 7.66099 4.54008 7.43536 4.82232 7.43536H18.9879C19.2701 7.43536 19.4957 7.66099 19.4957 7.94323V17.0577Z" fill="#3D4857"/>
<path d="M18.9879 7.40735H17.5205V7.46375L19.4958 9.43903H19.5524V7.94342C19.5524 7.66117 19.2984 7.40735 18.9879 7.40735Z" fill="white"/>
<path d="M19.0447 8.0563C19.0447 8.14995 18.9689 8.22573 18.8755 8.22573C18.7818 8.22573 18.7061 8.14995 18.7061 8.0563C18.7061 7.96287 18.7818 7.88708 18.8755 7.88708C18.9689 7.88708 19.0447 7.96287 19.0447 8.0563Z" fill="#586473"/>
<path d="M4.25781 7.94339V9.4108H4.31443L6.28971 7.43553V7.37891H4.8223C4.51185 7.40732 4.25781 7.66115 4.25781 7.94339Z" fill="white"/>
<path d="M5.10427 8.0563C5.10427 8.14995 5.02849 8.22573 4.93484 8.22573C4.84141 8.22573 4.76562 8.14995 4.76562 8.0563C4.76562 7.96287 4.84141 7.88708 4.93484 7.88708C5.02849 7.88708 5.10427 7.96287 5.10427 8.0563Z" fill="#586473"/>
<path d="M4.8223 17.6223H6.28971V17.5657L4.31443 15.5905H4.25781V17.0579C4.25781 17.3683 4.51185 17.6223 4.8223 17.6223Z" fill="white"/>
<path d="M5.10427 16.945C5.10427 17.0384 5.02849 17.1142 4.93484 17.1142C4.84141 17.1142 4.76562 17.0384 4.76562 16.945C4.76562 16.8516 4.84141 16.7756 4.93484 16.7756C5.02849 16.7756 5.10427 16.8516 5.10427 16.945Z" fill="#586473"/>
<path d="M19.5524 17.0579V15.5905H19.4958L17.5205 17.5657V17.6223H18.9879C19.2984 17.6223 19.5524 17.3683 19.5524 17.0579Z" fill="white"/>
<path d="M19.0447 16.945C19.0447 17.0384 18.9689 17.1142 18.8755 17.1142C18.7818 17.1142 18.7061 17.0384 18.7061 16.945C18.7061 16.8516 18.7818 16.7756 18.8755 16.7756C18.9689 16.7756 19.0447 16.8516 19.0447 16.945Z" fill="#586473"/>
<path d="M6.85547 13.5854L8.53127 11.9089L10.8465 14.2231L9.17068 15.8997L6.85547 13.5854Z" fill="white"/>
<path d="M7.11816 13.63L8.57438 12.1732L10.2706 13.869L8.81442 15.3256L7.11816 13.63Z" fill="#90C3F0"/>
<path d="M15.7148 12.5149C15.7148 13.2005 15.1589 13.7564 14.4732 13.7564C13.7873 13.7564 13.2314 13.2005 13.2314 12.5149C13.2314 11.8289 13.7873 11.2731 14.4732 11.2731C15.1589 11.2731 15.7148 11.8289 15.7148 12.5149Z" fill="white"/>
<path d="M15.4887 12.5147C15.4887 13.0757 15.034 13.5304 14.473 13.5304C13.9119 13.5304 13.457 13.0757 13.457 12.5147C13.457 11.9536 13.9119 11.4987 14.473 11.4987C15.034 11.4987 15.4887 11.9536 15.4887 12.5147Z" fill="#79C3D1"/>
<path d="M11.51 11.3858C11.651 11.4422 11.7358 11.3858 11.651 11.2446L11.6228 11.1882C11.5664 11.0471 11.51 10.9059 11.51 10.9059C11.51 10.9059 11.651 10.8213 11.8204 10.7931L12.1309 10.7085C12.3001 10.6803 12.3001 10.5957 12.1309 10.5675L11.8204 10.4827C11.651 10.4545 11.5382 10.398 11.5382 10.398C11.5382 10.398 11.5664 10.2288 11.6228 10.0876L11.651 10.0312C11.7074 9.89018 11.651 9.80558 11.51 9.89018L11.4536 9.91839C11.3124 9.97479 11.1714 10.0312 11.1714 10.0312C11.1714 10.0312 11.0867 9.89018 11.0585 9.72075L10.9739 9.41052C10.9457 9.24109 10.8609 9.24109 10.8327 9.41052L10.7481 9.72075C10.7199 9.89018 10.6635 10.003 10.6635 10.003C10.6635 10.003 10.4941 9.97479 10.353 9.91839L10.2966 9.89018C10.1556 9.83378 10.0708 9.89018 10.1556 10.0312L10.1838 10.0876C10.2402 10.2288 10.2966 10.3698 10.2966 10.3698C10.2966 10.3698 10.1556 10.4545 9.98619 10.4827L9.67574 10.5675C9.50652 10.5957 9.50652 10.6803 9.67574 10.7085L9.98619 10.7931C10.1556 10.8213 10.2684 10.8777 10.2684 10.8777C10.2684 10.8777 10.2402 11.0471 10.1838 11.1882L10.1556 11.2446C10.099 11.3858 10.1556 11.4704 10.2966 11.3858L10.353 11.3576C10.4941 11.301 10.6353 11.2446 10.6353 11.2446C10.6353 11.2446 10.7199 11.3858 10.7481 11.555L10.8327 11.8655C10.8609 12.0347 10.9457 12.0347 10.9739 11.8655L11.0585 11.555C11.0867 11.3858 11.1431 11.2728 11.1431 11.2728C11.1431 11.2728 11.3124 11.301 11.4536 11.3576L11.51 11.3858Z" fill="white"/>
<path d="M11.482 10.6523C11.482 10.9795 11.2168 11.2447 10.8893 11.2447C10.5621 11.2447 10.2969 10.9795 10.2969 10.6523C10.2969 10.325 10.5621 10.0596 10.8893 10.0596C11.2168 10.0596 11.482 10.325 11.482 10.6523Z" fill="#FFBA6B"/>
<path d="M11.4819 10.2574L11.6229 9.94696L11.3125 10.088C11.3691 10.1162 11.4255 10.201 11.4819 10.2574Z" fill="#FFBA6B"/>
<path d="M11.0304 9.97509L10.8892 9.46722L10.7764 9.97509H10.9174C10.9458 9.94689 11.0022 9.97509 11.0304 9.97509Z" fill="#FFBA6B"/>
<path d="M12.0743 10.6525L11.5664 10.5113V10.6525V10.7935L12.0743 10.6525Z" fill="#FFBA6B"/>
<path d="M10.5221 10.088L10.2119 9.94696L10.3529 10.2574C10.3811 10.201 10.4375 10.1162 10.5221 10.088Z" fill="#FFBA6B"/>
<path d="M11.2842 11.2165L11.5946 11.3577L11.4536 11.0473C11.4254 11.1037 11.369 11.1601 11.2842 11.2165Z" fill="#FFBA6B"/>
<path d="M10.7764 11.3011L10.9174 11.8092L11.0586 11.3011C11.0022 11.3011 10.974 11.3011 10.9174 11.3011C10.861 11.3295 10.8046 11.3295 10.7764 11.3011Z" fill="#FFBA6B"/>
<path d="M10.3247 11.0193L10.2119 11.3579L10.5221 11.2167C10.4375 11.1603 10.3811 11.1039 10.3247 11.0193Z" fill="#FFBA6B"/>
<path d="M10.2122 10.6525C10.2122 10.5961 10.2122 10.5679 10.2122 10.5113L9.7041 10.6525L10.2122 10.7935C10.2122 10.7371 10.2122 10.6807 10.2122 10.6525Z" fill="#FFBA6B"/>
<path d="M7.24902 7.46368H8.23677V17.5657H7.24902V7.46368Z" fill="#586473"/>
<path d="M15.5732 7.46368H16.561V17.5657H15.5732V7.46368Z" fill="#586473"/>
</g>
<defs>
<clipPath id="clip0_40000017_4869">
<rect width="24" height="24" fill="white"/>
</clipPath>
</defs>
</svg>
