<svg width="24" height="24" viewBox="0 0 24 24" fill="none" xmlns="http://www.w3.org/2000/svg">
<g clip-path="url(#clip0_40000017_7501)">
<path fill-rule="evenodd" clip-rule="evenodd" d="M12 0C18.6263 0 24 5.37368 24 12C24 18.6263 18.6263 24 12 24C5.37368 24 0 18.6263 0 12C0 5.37368 5.37368 0 12 0Z" fill="#178FEB"/>
<path d="M17.5159 11.9896C17.5159 10.7047 16.7166 9.69818 15.6962 9.69818C15.6071 9.69818 15.5198 9.70632 15.4345 9.72118C15.4735 9.49559 15.4941 9.26176 15.4941 9.02419C15.4941 8.33968 15.3269 7.68418 15.0235 7.1784C14.6479 6.55253 14.0825 6.19354 13.4722 6.19354C12.8618 6.19354 12.2964 6.55253 11.9209 7.1784C11.8979 7.21662 11.876 7.25599 11.8546 7.29588C11.8333 7.25599 11.8114 7.21662 11.7884 7.1784C11.4129 6.55253 10.8475 6.19354 10.2371 6.19354C9.62678 6.19354 9.06136 6.55253 8.68584 7.1784C8.38241 7.68418 8.21525 8.33968 8.21525 9.02419C8.21525 9.26176 8.23582 9.49559 8.27479 9.72113C8.18947 9.70627 8.10212 9.69813 8.01306 9.69813C6.99266 9.69813 6.19336 10.7047 6.19336 11.9896C6.19336 12.3852 6.26918 12.7543 6.40389 13.0758C6.52995 13.3768 6.59774 13.6988 6.59774 14.0251V28.8387H17.1116V14.0251C17.1116 13.6988 17.1793 13.3768 17.3054 13.0758C17.4401 12.7543 17.5159 12.3852 17.5159 11.9896Z" fill="#F0915A"/>
<path d="M7.00212 28.8387C6.7788 28.8387 6.59774 28.6576 6.59774 28.4343V14.0251C6.59774 13.7022 6.53253 13.3828 6.40389 13.0758C6.26615 12.747 6.19336 12.3715 6.19336 11.9896C6.19336 10.7047 6.99266 9.69818 8.01306 9.69818C8.09919 9.69818 8.18725 9.70592 8.27484 9.72118C8.23532 9.49231 8.21525 9.25782 8.21525 9.02419C8.21525 8.33968 8.38241 7.68418 8.68584 7.1784C9.06136 6.55253 9.62683 6.19354 10.2371 6.19354C10.4605 6.19354 10.6415 6.3746 10.6415 6.59792C10.6415 6.82124 10.4605 7.0023 10.2371 7.0023C9.91783 7.0023 9.60515 7.21813 9.37935 7.59451C9.15017 7.97639 9.024 8.48414 9.024 9.02419C9.024 9.21182 9.04003 9.40001 9.07172 9.58349L9.16948 10.1492C9.19182 10.2788 9.14977 10.4113 9.05671 10.5042C8.96365 10.5971 8.83147 10.639 8.70161 10.6164L8.13604 10.5179C8.09419 10.5105 8.05284 10.5068 8.01311 10.5068C7.45568 10.5068 7.00217 11.172 7.00217 11.9895C7.00217 12.265 7.05327 12.5325 7.14992 12.7632C7.32016 13.1699 7.40649 13.5944 7.40649 14.0251V28.4343C7.40649 28.6576 7.22543 28.8387 7.00212 28.8387Z" fill="#FAB991"/>
<path d="M14.6599 13.6021C14.4184 13.5197 14.2322 13.3291 14.1493 13.0878C13.8217 12.1353 12.918 11.4507 11.8544 11.4507C10.7907 11.4507 9.88702 12.1353 9.55952 13.0878C9.47653 13.3291 9.29036 13.5197 9.04885 13.6021C8.05807 13.94 7.35577 14.9009 7.40909 16.0179C7.46828 17.2574 8.47478 18.2636 9.7143 18.3224C10.3367 18.352 10.9105 18.1467 11.3551 17.7878C11.645 17.5536 12.0637 17.5536 12.3537 17.7878C12.7983 18.1467 13.372 18.352 13.9945 18.3224C15.234 18.2636 16.2406 17.2574 16.2997 16.0179C16.353 14.9009 15.6507 13.94 14.6599 13.6021Z" fill="#463C4B"/>
<path d="M13.4719 11.0463C14.1419 11.0463 14.6851 10.1411 14.6851 9.02439C14.6851 7.90773 14.1419 7.0025 13.4719 7.0025C12.8019 7.0025 12.2588 7.90773 12.2588 9.02439C12.2588 10.1411 12.8019 11.0463 13.4719 11.0463Z" fill="#463C4B"/>
<path d="M10.2375 11.0463C10.9075 11.0463 11.4507 10.1411 11.4507 9.02439C11.4507 7.90773 10.9075 7.0025 10.2375 7.0025C9.56755 7.0025 9.02441 7.90773 9.02441 9.02439C9.02441 10.1411 9.56755 11.0463 10.2375 11.0463Z" fill="#463C4B"/>
<path d="M15.6965 13.4722C16.2548 13.4722 16.7074 12.8084 16.7074 11.9895C16.7074 11.1706 16.2548 10.5068 15.6965 10.5068C15.1382 10.5068 14.6855 11.1706 14.6855 11.9895C14.6855 12.8084 15.1382 13.4722 15.6965 13.4722Z" fill="#463C4B"/>
<path d="M8.0129 13.4722C8.57123 13.4722 9.02384 12.8084 9.02384 11.9895C9.02384 11.1706 8.57123 10.5068 8.0129 10.5068C7.45457 10.5068 7.00195 11.1706 7.00195 11.9895C7.00195 12.8084 7.45457 13.4722 8.0129 13.4722Z" fill="#463C4B"/>
<path d="M7.81257 16.403C7.59815 16.403 7.41936 16.2344 7.409 16.0179C7.35759 14.9423 8.03189 13.949 9.04875 13.6021C9.28905 13.5201 9.47522 13.3327 9.55943 13.0878C9.89607 12.1086 10.8183 11.4507 11.8543 11.4507C12.0776 11.4507 12.2587 11.6318 12.2587 11.8551C12.2587 12.0784 12.0776 12.2595 11.8543 12.2595C11.1635 12.2595 10.5486 12.698 10.3242 13.3507C10.1582 13.8337 9.78841 14.2044 9.30983 14.3676C8.63199 14.5987 8.18252 15.2615 8.21684 15.9793C8.22751 16.2023 8.0553 16.3918 7.83223 16.4025C7.82566 16.4028 7.81909 16.403 7.81257 16.403Z" fill="#555A6E"/>
<path d="M12.6632 9.42877C12.4398 9.42877 12.2588 9.24771 12.2588 9.02439C12.2588 7.90952 12.803 7.0025 13.4719 7.0025C13.6952 7.0025 13.8763 7.18356 13.8763 7.40688C13.8763 7.62615 13.7018 7.80469 13.484 7.81111C13.3645 7.85994 13.0675 8.2905 13.0675 9.02439C13.0675 9.24771 12.8865 9.42877 12.6632 9.42877ZM13.4721 7.81126H13.4719H13.4721Z" fill="#555A6E"/>
<path d="M9.42782 9.42877C9.2045 9.42877 9.02344 9.24771 9.02344 9.02439C9.02344 7.90952 9.56768 7.0025 10.2366 7.0025C10.4599 7.0025 10.6409 7.18356 10.6409 7.40688C10.6409 7.62615 10.4664 7.80469 10.2487 7.81111C10.1292 7.85994 9.83219 8.2905 9.83219 9.02439C9.83219 9.24771 9.65113 9.42877 9.42782 9.42877ZM10.2367 7.81126H10.2366H10.2367Z" fill="#555A6E"/>
<path d="M15.0899 12.3943C14.8666 12.3943 14.6855 12.2132 14.6855 11.9899C14.6855 11.1723 15.1391 10.5072 15.6965 10.5072C15.9198 10.5072 16.1009 10.6883 16.1009 10.9116C16.1009 11.1253 15.9351 11.3003 15.7251 11.3149C15.6499 11.3646 15.4943 11.6052 15.4943 11.9899C15.4943 12.2132 15.3132 12.3943 15.0899 12.3943Z" fill="#555A6E"/>
<path d="M7.40633 12.3943C7.18301 12.3943 7.00195 12.2132 7.00195 11.9899C7.00195 11.1723 7.45546 10.5072 8.0129 10.5072C8.23622 10.5072 8.41728 10.6883 8.41728 10.9116C8.41728 11.1253 8.25148 11.3003 8.04146 11.3149C7.96629 11.3646 7.81071 11.6052 7.81071 11.9899C7.81071 12.2132 7.62965 12.3943 7.40633 12.3943Z" fill="#555A6E"/>
</g>
<defs>
<clipPath id="clip0_40000017_7501">
<rect width="24" height="24" rx="12" fill="white"/>
</clipPath>
</defs>
</svg>
