<svg width="24" height="24" viewBox="0 0 24 24" fill="none" xmlns="http://www.w3.org/2000/svg">
<g clip-path="url(#clip0_40000017_5971)">
<path d="M12 24C18.6274 24 24 18.6274 24 12C24 5.37258 18.6274 0 12 0C5.37258 0 0 5.37258 0 12C0 18.6274 5.37258 24 12 24Z" fill="#4A8592"/>
<path d="M20.2331 7.16375C20.0116 6.82963 19.5564 6.78425 19.2745 7.04488L17.6239 8.57215C17.5309 8.65819 17.3954 8.68035 17.2799 8.62831L15.8808 7.99873C15.7408 7.93574 15.5783 7.98504 15.4909 8.11127C15.175 8.56735 14.68 8.79174 14.2723 8.62059C13.8506 8.44361 13.6638 7.9037 13.7921 7.33796C13.8253 7.19128 13.7531 7.04129 13.616 6.97958L12.0849 6.29064C11.5269 6.03953 10.8741 6.13347 10.4095 6.53165L8.68165 8.01271C8.44288 8.21737 8.36136 8.57009 8.52483 8.83869C8.73333 9.18117 9.1867 9.24374 9.47807 8.9937L11.2317 7.49062C11.3246 7.41098 11.4552 7.39217 11.5669 7.44239L12.2955 7.77025C12.6167 7.91476 12.7576 8.29394 12.6088 8.61309L10.1148 13.9615C10.0469 14.1069 9.88134 14.1788 9.72872 14.1276L7.21481 13.2912L6.78711 14.4796L9.55056 15.3983C9.7157 15.4533 9.88404 15.4797 10.0501 15.4797C10.6488 15.4797 11.2151 15.1371 11.4806 14.5677L12.1852 13.1913L15.1098 14.4003C15.1967 14.4365 15.2624 14.5089 15.2901 14.599L16.3295 17.8356H17.5925L16.4323 13.9699C16.2938 13.52 15.9653 13.158 15.5305 12.9767L13.9639 12.324L15.1664 9.74538C15.3124 9.43228 15.6829 9.29463 15.9979 9.43637L16.7615 9.77999C16.9699 9.87374 17.1907 9.91952 17.41 9.91952C17.7994 9.91952 18.1834 9.77504 18.4817 9.49925L20.1083 7.99425C20.339 7.78092 20.4068 7.4256 20.2331 7.16375Z" fill="#F5C882"/>
<path d="M10.2504 13.67L10.1146 13.9614C10.0467 14.1068 9.88114 14.1786 9.72852 14.1274L10.1799 14.2722C10.4619 14.3626 10.7669 14.2265 10.8878 13.9561L10.8963 13.937L10.2504 13.67Z" fill="#F5AF73"/>
<path d="M9.02771 10.8387H2.19823C2.05304 10.8387 1.93555 10.752 1.93555 10.6451C1.93555 10.5383 2.05304 10.4516 2.19823 10.4516H9.02771C9.17289 10.4516 9.29039 10.5383 9.29039 10.6451C9.29039 10.752 9.17289 10.8387 9.02771 10.8387Z" fill="#D5DCED"/>
<path d="M6.69749 9.67738L4.52976 9.67729C4.37999 9.67729 4.25879 9.59065 4.25879 9.48379C4.25879 9.37692 4.38024 9.29028 4.52976 9.29028L6.69749 9.29037C6.84726 9.29037 6.96847 9.37701 6.96847 9.48388C6.96847 9.59074 6.84699 9.67738 6.69749 9.67738Z" fill="#E4EAF8"/>
<path d="M5.72961 8.51606C5.55875 8.51606 5.41992 8.42942 5.41992 8.32256C5.41992 8.21569 5.55844 8.12905 5.72961 8.12905L6.65862 8.12897C6.82948 8.12897 6.96831 8.21561 6.96831 8.32247C6.96831 8.42934 6.82979 8.51598 6.65862 8.51598L5.72961 8.51606Z" fill="#E4EAF8"/>
<path d="M8.64588 11.6128H4.51686C4.37422 11.6128 4.25879 11.5261 4.25879 11.4193C4.25879 11.3124 4.37422 11.2257 4.51686 11.2257H8.64588C8.78852 11.2257 8.90395 11.3124 8.90395 11.4193C8.90395 11.5261 8.78852 11.6128 8.64588 11.6128Z" fill="#E4EAF8"/>
<path d="M3.58093 9.67738H3.00028C2.83982 9.67738 2.70996 9.59072 2.70996 9.48383C2.70996 9.37694 2.83982 9.29028 3.00028 9.29028H3.58093C3.74139 9.29028 3.87125 9.37694 3.87125 9.48383C3.87125 9.59072 3.74139 9.67738 3.58093 9.67738Z" fill="#E4EAF8"/>
<path d="M18.5404 19.0986H16.3301V17.8356H17.5931C18.1163 17.8356 18.5404 18.2597 18.5404 18.7828V19.0986Z" fill="#D5DCED"/>
<path d="M5.27832 14.9432L6.02662 12.8634L7.21508 13.291L6.78745 14.4795C6.61032 14.9717 6.06767 15.2273 5.57542 15.0501L5.27832 14.9432Z" fill="#D5DCED"/>
<path d="M15.6986 7.0999C15.001 7.0999 14.4355 6.53441 14.4355 5.83686V5.20532C14.4355 4.68216 14.8597 4.25806 15.3828 4.25806H16.8037C16.8909 4.25806 16.9616 4.32876 16.9616 4.41594V5.83686C16.9616 6.53441 16.3961 7.0999 15.6986 7.0999Z" fill="#F5C882"/>
<path d="M15.1671 9.74566C15.3131 9.43256 15.6836 9.29491 15.9986 9.43665L16.2157 9.53435L16.757 8.39296L15.8814 7.99898C15.8814 7.99898 14.0243 7.15098 13.6166 6.97983L12.6446 6.54242L12.1034 7.68378L12.2961 7.77049C12.6172 7.915 12.7581 8.29419 12.6093 8.61333L11.3779 11.254L13.965 12.3235L15.1671 9.74566Z" fill="#7DF5A5"/>
<path d="M13.9648 12.3236L11.3778 11.2542L10.251 13.6705L11.6454 14.247L12.1856 13.1916L14.566 14.1757L15.1154 12.8039L13.9644 12.3244L13.9648 12.3236Z" fill="#5B5D6E"/>
<path opacity="0.27" d="M12.893 8.02314L12.2961 7.77032C12.6172 7.91484 12.7581 8.29402 12.6093 8.61317L11.3779 11.2539L11.985 11.5049L13.1969 8.79545C13.3298 8.49836 13.1928 8.15008 12.893 8.02314Z" fill="#5B5D6E"/>
<path d="M11.9849 11.5051L11.3778 11.2542L10.251 13.6705L10.8968 13.9375L11.9849 11.5051Z" fill="#464655"/>
<path d="M12.6093 8.61317L11.3779 11.2539L11.985 11.5049L13.1969 8.79545C13.3298 8.49836 13.1928 8.15004 12.8931 8.02314L12.2961 7.77032C12.6173 7.91487 12.7582 8.29406 12.6093 8.61317Z" fill="#64DCA0"/>
<path d="M15.3828 5.83686V5.20532C15.3828 4.68216 15.8069 4.25806 16.3301 4.25806H15.3828C14.8597 4.25806 14.4355 4.68216 14.4355 5.20532V5.83686C14.4355 6.53441 15.001 7.0999 15.6986 7.0999C15.8663 7.0999 16.0257 7.06564 16.1722 7.00625C15.7097 6.8187 15.3828 6.36667 15.3828 5.83686Z" fill="#F5AF73"/>
<path d="M15.3828 4.25806C14.8597 4.25806 14.4355 4.68216 14.4355 5.20532V5.83686C14.4355 5.94655 14.4539 6.05115 14.4802 6.15263H15.0449C15.256 6.15263 15.4532 6.0471 15.5703 5.8714L15.8269 5.48656C15.944 5.31089 16.1412 5.20532 16.3523 5.20532H16.9617V4.41594C16.9617 4.32876 16.8909 4.25806 16.8038 4.25806H15.3828Z" fill="#6E4848"/>
<path d="M14.4355 5.20532V5.83686C14.4355 5.94655 14.4539 6.05115 14.4802 6.15263H15.0449C15.1741 6.15263 15.2957 6.10916 15.3993 6.03814C15.3888 5.97255 15.3828 5.90547 15.3828 5.8369V5.20532C15.3828 4.68216 15.8069 4.25806 16.3301 4.25806H15.3828C14.8597 4.25806 14.4355 4.68216 14.4355 5.20532Z" fill="#643C3E"/>
</g>
<defs>
<clipPath id="clip0_40000017_5971">
<rect width="24" height="24" fill="white"/>
</clipPath>
</defs>
</svg>
