<svg width="24" height="24" viewBox="0 0 24 24" fill="none" xmlns="http://www.w3.org/2000/svg">
<g clip-path="url(#clip0_40000017_6501)">
<path d="M12 24C18.6274 24 24 18.6274 24 12C24 5.37258 18.6274 0 12 0C5.37258 0 0 5.37258 0 12C0 18.6274 5.37258 24 12 24Z" fill="#FECE66"/>
<path d="M12.1523 10.125H11.8486V8.775C11.8481 8.65651 11.8711 8.5391 11.9163 8.42956C11.9614 8.32002 12.0279 8.22053 12.1118 8.13683C12.1956 8.05313 12.2953 7.9869 12.4049 7.94195C12.5145 7.89701 12.632 7.87426 12.7505 7.875H15.188C15.4595 7.875 15.7199 7.76714 15.9119 7.57515C16.1039 7.38316 16.2117 7.12277 16.2117 6.85125C16.2117 6.57973 16.1039 6.31934 15.9119 6.12735C15.7199 5.93536 15.4595 5.8275 15.188 5.8275H9.45234C9.26104 5.82701 9.07772 5.75079 8.94245 5.61552C8.80718 5.48025 8.73096 5.29693 8.73047 5.10562V4.3125H9.03609V5.10562C9.03609 5.21602 9.07995 5.3219 9.15801 5.39996C9.23607 5.47802 9.34195 5.52188 9.45234 5.52188H15.1767C15.3554 5.51516 15.5335 5.54455 15.7006 5.60829C15.8676 5.67203 16.0201 5.7688 16.1488 5.89282C16.2776 6.01684 16.38 6.16555 16.45 6.33007C16.5199 6.49459 16.556 6.67153 16.556 6.85031C16.556 7.02909 16.5199 7.20603 16.45 7.37055C16.38 7.53507 16.2776 7.68379 16.1488 7.80781C16.0201 7.93183 15.8676 8.0286 15.7006 8.09234C15.5335 8.15607 15.3554 8.18546 15.1767 8.17875H12.7505C12.5938 8.17875 12.4436 8.24098 12.3328 8.35174C12.2221 8.4625 12.1598 8.61273 12.1598 8.76937L12.1523 10.125Z" fill="#64798A"/>
<path d="M18.8065 11.7694C18.6935 11.0674 18.3304 10.4299 17.7842 9.97468C17.2379 9.51945 16.5455 9.27715 15.8346 9.29252C13.2452 9.84377 10.7196 9.87565 8.26711 9.29252C7.53925 9.25228 6.82231 9.48318 6.25475 9.94063C5.68718 10.3981 5.30926 11.0496 5.19398 11.7694C4.93523 13.3763 4.74961 19.3313 6.90586 19.6781C7.84336 19.8263 8.75461 18.6113 9.4896 17.1263C9.70682 16.674 10.0405 16.2877 10.4563 16.0069C10.8721 15.7262 11.3552 15.5612 11.8559 15.5288H11.8971C12.4427 15.5144 12.9807 15.658 13.4465 15.9425C13.9122 16.2269 14.2858 16.64 14.5221 17.1319C15.2571 18.6169 16.174 19.8281 17.104 19.68C19.2509 19.3313 19.0652 13.3763 18.8065 11.7694Z" fill="#3A556A"/>
<path d="M14.8855 13.5823C15.135 13.5823 15.3373 13.38 15.3373 13.1304C15.3373 12.8808 15.135 12.6785 14.8855 12.6785C14.6359 12.6785 14.4336 12.8808 14.4336 13.1304C14.4336 13.38 14.6359 13.5823 14.8855 13.5823Z" fill="#64798A"/>
<path d="M16.6091 13.5823C16.8587 13.5823 17.061 13.38 17.061 13.1304C17.061 12.8808 16.8587 12.6785 16.6091 12.6785C16.3595 12.6785 16.1572 12.8808 16.1572 13.1304C16.1572 13.38 16.3595 13.5823 16.6091 13.5823Z" fill="#64798A"/>
<path d="M15.7478 12.7219C15.9973 12.7219 16.1996 12.5196 16.1996 12.2701C16.1996 12.0205 15.9973 11.8182 15.7478 11.8182C15.4982 11.8182 15.2959 12.0205 15.2959 12.2701C15.2959 12.5196 15.4982 12.7219 15.7478 12.7219Z" fill="#64798A"/>
<path d="M15.7478 14.4449C15.9973 14.4449 16.1996 14.2426 16.1996 13.993C16.1996 13.7434 15.9973 13.5411 15.7478 13.5411C15.4982 13.5411 15.2959 13.7434 15.2959 13.993C15.2959 14.2426 15.4982 14.4449 15.7478 14.4449Z" fill="#64798A"/>
<path d="M8.73383 12.9484H8.06258V12.2659C8.06258 12.1739 8.02603 12.0857 7.96098 12.0207C7.89593 11.9556 7.8077 11.9191 7.7157 11.9191C7.62371 11.9191 7.53548 11.9556 7.47043 12.0207C7.40537 12.0857 7.36883 12.1739 7.36883 12.2659V12.9484H6.67695C6.58496 12.9484 6.49673 12.985 6.43168 13.05C6.36662 13.1151 6.33008 13.2033 6.33008 13.2953C6.33008 13.3873 6.36662 13.4755 6.43168 13.5406C6.49673 13.6056 6.58496 13.6422 6.67695 13.6422H7.35945V14.3247C7.35945 14.4167 7.396 14.5049 7.46105 14.57C7.5261 14.635 7.61433 14.6716 7.70633 14.6716C7.79833 14.6716 7.88655 14.635 7.95161 14.57C8.01666 14.5049 8.0532 14.4167 8.0532 14.3247V13.6422H8.73383C8.82583 13.6422 8.91405 13.6056 8.97911 13.5406C9.04416 13.4755 9.0807 13.3873 9.0807 13.2953C9.0807 13.2033 9.04416 13.1151 8.97911 13.05C8.91405 12.985 8.82583 12.9484 8.73383 12.9484Z" fill="#64798A"/>
<path d="M11.0143 11.0493C10.9571 11.0489 10.9011 11.0655 10.8533 11.097C10.8056 11.1285 10.7683 11.1735 10.7462 11.2262C10.724 11.2789 10.718 11.3371 10.729 11.3932C10.7399 11.4493 10.7672 11.5009 10.8075 11.5415C10.8478 11.5821 10.8993 11.6098 10.9554 11.6211C11.0114 11.6324 11.0696 11.6268 11.1224 11.605C11.1753 11.5832 11.2205 11.5461 11.2523 11.4986C11.2841 11.4511 11.3011 11.3952 11.3011 11.338C11.3014 11.3002 11.2941 11.2627 11.2798 11.2277C11.2655 11.1926 11.2444 11.1608 11.2178 11.1339C11.1911 11.1071 11.1594 11.0858 11.1245 11.0713C11.0895 11.0567 11.0521 11.0493 11.0143 11.0493Z" fill="#64798A"/>
<path d="M11.9996 11.0493C11.9424 11.0489 11.8864 11.0655 11.8387 11.097C11.791 11.1285 11.7536 11.1735 11.7315 11.2262C11.7094 11.2789 11.7034 11.3371 11.7143 11.3932C11.7252 11.4493 11.7526 11.5009 11.7929 11.5415C11.8332 11.5821 11.8846 11.6098 11.9407 11.6211C11.9968 11.6324 12.0549 11.6268 12.1078 11.605C12.1607 11.5832 12.2059 11.5461 12.2377 11.4986C12.2695 11.4511 12.2865 11.3952 12.2865 11.338C12.2867 11.3002 12.2795 11.2627 12.2652 11.2277C12.2509 11.1926 12.2298 11.1608 12.2031 11.1339C12.1765 11.1071 12.1448 11.0858 12.1098 11.0713C12.0749 11.0567 12.0374 11.0493 11.9996 11.0493Z" fill="#64798A"/>
<path d="M12.9859 11.0493C12.9288 11.0489 12.8727 11.0655 12.825 11.097C12.7773 11.1285 12.74 11.1735 12.7178 11.2262C12.6957 11.2789 12.6897 11.3371 12.7006 11.3932C12.7116 11.4493 12.7389 11.5009 12.7792 11.5415C12.8195 11.5821 12.871 11.6098 12.927 11.6211C12.9831 11.6324 13.0413 11.6268 13.0941 11.605C13.147 11.5832 13.1922 11.5461 13.224 11.4986C13.2558 11.4511 13.2728 11.3952 13.2728 11.338C13.2731 11.3002 13.2658 11.2627 13.2515 11.2277C13.2372 11.1926 13.2161 11.1608 13.1895 11.1339C13.1628 11.1071 13.1311 11.0858 13.0962 11.0713C13.0612 11.0567 13.0238 11.0493 12.9859 11.0493Z" fill="#64798A"/>
</g>
<defs>
<clipPath id="clip0_40000017_6501">
<rect width="24" height="24" fill="white"/>
</clipPath>
</defs>
</svg>
