<svg width="24" height="24" viewBox="0 0 24 24" fill="none" xmlns="http://www.w3.org/2000/svg">
<g clip-path="url(#clip0_40000017_5229)">
<path fill-rule="evenodd" clip-rule="evenodd" d="M12 -6.10352e-05C18.6275 -6.10352e-05 24.0001 5.37252 24.0001 12C24.0001 18.6274 18.6275 24 12 24C5.37258 24 0 18.6274 0 12C0 5.37252 5.37258 -6.10352e-05 12 -6.10352e-05Z" fill="#CE4341"/>
<path fill-rule="evenodd" clip-rule="evenodd" d="M11.5314 19.1543C10.7289 19.1543 9.90594 19.0125 9.08533 18.733C7.85249 18.3129 6.37877 17.2761 6.05644 15.993C5.92485 15.4693 5.93122 14.6698 6.70818 13.836C7.89376 12.564 8.03836 11.4372 8.02329 10.5028C8.02119 10.3701 8.09682 10.2484 8.21661 10.1915C8.33657 10.1345 8.4786 10.1529 8.57995 10.2382L10.2992 11.6849C10.3719 11.7461 10.4155 11.8347 10.4195 11.9295C10.4236 12.0243 10.3877 12.1163 10.3206 12.1835L9.94164 12.5626L10.4222 13.0431L12.061 11.4043L11.5804 10.9237L11.2015 11.3027C11.1343 11.3697 11.0423 11.4046 10.9475 11.4016C10.8527 11.3974 10.764 11.3539 10.7029 11.2813L8.01658 8.0885C7.95239 8.01226 7.92514 7.91165 7.94195 7.81344C8.29258 5.76342 10.8291 4.84583 13.1874 4.84583C14.5261 4.84583 15.7776 5.1473 16.6213 5.67314C18.9039 7.0956 19.7715 9.90355 18.8855 13.0014C18.4134 14.6515 17.4797 16.1684 16.2562 17.2726C14.8925 18.5034 13.2591 19.154 11.5323 19.1543C11.532 19.1543 11.5316 19.1543 11.5314 19.1543Z" fill="#FFE9C8"/>
<path fill-rule="evenodd" clip-rule="evenodd" d="M13.4203 8.88103C13.0396 8.88103 12.6818 8.73276 12.4128 8.4636C11.8572 7.90814 11.8572 7.00419 12.4128 6.4486C12.6818 6.17948 13.0396 6.03131 13.4203 6.03131C13.8009 6.03131 14.1587 6.17948 14.4277 6.4486C14.6968 6.71773 14.8451 7.07556 14.8451 7.45614C14.8451 7.83678 14.6969 8.19455 14.4277 8.46367C14.1587 8.73276 13.801 8.88103 13.4203 8.88103Z" fill="#00E0A7"/>
<path fill-rule="evenodd" clip-rule="evenodd" d="M15.932 10.8006C15.5513 10.8006 15.1936 10.6523 14.9245 10.3832C14.3689 9.8277 14.3689 8.92375 14.9245 8.36816C15.1936 8.09903 15.5513 7.95087 15.932 7.95087C16.3126 7.95087 16.6704 8.09903 16.9394 8.36816C17.495 8.92375 17.495 9.8277 16.9394 10.3832C16.6704 10.6523 16.3126 10.8006 15.932 10.8006Z" fill="#00DDFF"/>
<path fill-rule="evenodd" clip-rule="evenodd" d="M15.8236 14.1038C15.443 14.1038 15.0852 13.9556 14.8162 13.6864C14.2605 13.1308 14.2605 12.227 14.8162 11.6714C15.0852 11.4023 15.443 11.2541 15.8236 11.2541C16.2043 11.2541 16.562 11.4024 16.8311 11.6715C17.3867 12.2271 17.3867 13.1309 16.8311 13.6865C16.562 13.9556 16.2042 14.1038 15.8236 14.1038Z" fill="#FF656B"/>
<path fill-rule="evenodd" clip-rule="evenodd" d="M10.35 17.7164C9.9694 17.7164 9.6116 17.5681 9.34247 17.2989C8.78688 16.7434 8.78688 15.8395 9.34247 15.2839C9.6116 15.0148 9.96943 14.8665 10.35 14.8665C10.7307 14.8665 11.0884 15.0148 11.3576 15.2839C11.9131 15.8395 11.9131 16.7434 11.3576 17.2989C11.0884 17.5681 10.7305 17.7164 10.35 17.7164Z" fill="#FF9A00"/>
<path fill-rule="evenodd" clip-rule="evenodd" d="M13.9507 16.7142C13.5701 16.7142 13.2123 16.566 12.9432 16.2969C12.4754 15.8291 12.3899 15.1088 12.7352 14.5453C12.8104 14.4229 12.9538 14.3612 13.0948 14.3911C13.2995 14.4348 13.4912 14.5116 13.6769 14.6256C13.6831 14.4871 13.684 14.3507 13.6794 14.217C13.6761 14.1216 13.7131 14.0293 13.7815 13.9627C13.8498 13.8961 13.9438 13.8624 14.0385 13.8671C14.3857 13.8884 14.7123 14.0356 14.9584 14.2817C15.514 14.8372 15.5139 15.741 14.9585 16.2967C14.689 16.5659 14.3312 16.7142 13.9507 16.7142Z" fill="#FFDC00"/>
<path fill-rule="evenodd" clip-rule="evenodd" d="M13.9505 15.6279C13.8596 15.6279 13.7708 15.5911 13.7057 15.5233C13.2302 15.0259 12.8941 15.0213 12.4686 15.0157C12.0543 15.0102 11.5383 15.0033 10.9326 14.5199C10.4915 14.1677 10.2683 13.7473 10.2872 13.3044C10.2909 13.2196 10.3262 13.1395 10.3861 13.0795L11.9545 11.511C12.0039 11.4617 12.0672 11.4288 12.136 11.4168C12.2259 11.4012 12.3166 11.3932 12.4055 11.3932C12.8692 11.3932 13.2932 11.6013 13.6313 11.9949C14.2503 12.7153 14.4947 13.966 14.2852 15.3402C14.2658 15.4679 14.1754 15.5733 14.0525 15.6122C14.0189 15.6228 13.9846 15.6279 13.9505 15.6279Z" fill="#BC6640"/>
<path fill-rule="evenodd" clip-rule="evenodd" d="M10.0813 12.2826C10.0041 12.2826 9.92658 12.2562 9.86335 12.2031L5.2377 8.31093C4.95514 8.07316 4.79033 7.73016 4.77382 7.34512C4.75561 6.92196 4.92106 6.49309 5.21626 6.19789C5.49962 5.91453 5.89298 5.75201 6.29539 5.75201C6.70248 5.75201 7.07932 5.92239 7.32917 6.2194L11.2213 10.8451C11.3344 10.9797 11.326 11.1783 11.2017 11.3026L10.3209 12.1835C10.255 12.2492 10.1684 12.2826 10.0813 12.2826Z" fill="#8C808A"/>
<path fill-rule="evenodd" clip-rule="evenodd" d="M10.4222 13.8607C10.3324 13.8607 10.2462 13.8249 10.1827 13.7614L9.22324 12.8019C9.09095 12.6698 9.09095 12.4553 9.22324 12.3232L11.3409 10.2054C11.4679 10.0784 11.6928 10.0784 11.8197 10.2054L12.7792 11.1649C12.9115 11.2972 12.9115 11.5115 12.7792 11.6438L10.6618 13.7614C10.5982 13.825 10.5121 13.8607 10.4222 13.8607Z" fill="#E6E2E6"/>
</g>
<defs>
<clipPath id="clip0_40000017_5229">
<rect width="24" height="24" fill="white"/>
</clipPath>
</defs>
</svg>
