<svg width="24" height="24" viewBox="0 0 24 24" fill="none" xmlns="http://www.w3.org/2000/svg">
<g clip-path="url(#clip0_40000017_5400)">
<path d="M0 12C0 5.37364 5.37364 0 12 0C18.6264 0 24 5.37364 24 12C24 18.6264 18.6264 24 12 24C5.37364 24 0 18.6264 0 12Z" fill="#A076AB"/>
<path d="M13.8787 3.48389H10.7022C10.2238 3.48389 9.83594 3.87174 9.83594 4.35018V6.37155H13.8787V4.92772C13.8787 4.66465 13.8079 4.41822 13.685 4.2058C13.8079 3.99338 13.8787 3.74695 13.8787 3.48389Z" fill="#463C4B"/>
<path d="M9.54785 9.25897H14.1681V17.2481H9.54785V9.25897Z" fill="#D7E6F0"/>
<path d="M9.54855 20.2324C8.99975 20.2324 8.47517 19.9178 8.23329 19.3856C7.90331 18.6597 8.22431 17.8037 8.95023 17.4737L15.3031 14.5861C16.0291 14.2562 16.885 14.5771 17.215 15.3031C17.5449 16.029 17.2239 16.885 16.498 17.2149L10.1452 20.1026C9.95138 20.1906 9.74838 20.2324 9.54855 20.2324Z" fill="#643773"/>
<path d="M8.33126 20.6883L7.29813 18.622C7.2268 18.4794 7.28463 18.306 7.42728 18.2346L7.86848 18.014C8.43904 17.7287 9.13287 17.96 9.41814 18.5306L9.67644 19.0472C9.96174 19.6177 9.73047 20.3116 9.15987 20.5969L8.71868 20.8175C8.57602 20.8887 8.40258 20.8309 8.33126 20.6883Z" fill="#FAA019"/>
<path d="M14.1672 20.2324C13.9674 20.2324 13.7645 20.1908 13.5707 20.1026L7.21781 17.215C6.49188 16.885 6.17089 16.0291 6.50087 15.3031C6.83082 14.5772 7.6868 14.2561 8.41275 14.5861L14.7656 17.4738C15.4915 17.8038 15.8125 18.6597 15.4825 19.3857C15.2407 19.9178 14.716 20.2324 14.1672 20.2324Z" fill="#9B5FAA"/>
<path d="M14.996 20.8172L14.5548 20.5966C13.9842 20.3113 13.7529 19.6175 14.0382 19.0469L14.2965 18.5304C14.5818 17.9598 15.2756 17.7285 15.8462 18.0138L16.2874 18.2344C16.43 18.3057 16.4879 18.4791 16.4165 18.6218L15.3834 20.688C15.3121 20.8307 15.1386 20.8885 14.996 20.8172Z" fill="#FFD205"/>
<path d="M11.8575 10.1255C11.3791 10.1255 10.9912 9.73769 10.9912 9.25924V8.39294H12.7238V9.25924C12.7238 9.73769 12.336 10.1255 11.8575 10.1255Z" fill="#F0915A"/>
<path d="M11.8576 8.68193C10.9007 8.68193 10.125 7.90623 10.125 6.94933V5.79427C10.125 5.47529 10.3836 5.21674 10.7025 5.21674H13.0127C13.3316 5.21674 13.5902 5.47529 13.5902 5.79427V6.94933C13.5902 7.90623 12.8145 8.68193 11.8576 8.68193Z" fill="#FAB991"/>
<path d="M8.68101 14.7458H6.08212C5.60367 14.7458 5.21582 14.3579 5.21582 13.8795C5.21582 13.401 5.60367 13.0132 6.08212 13.0132H8.68101C9.15946 13.0132 9.54731 13.401 9.54731 13.8795C9.54731 14.3579 9.15946 14.7458 8.68101 14.7458Z" fill="#F0915A"/>
<path d="M9.54743 9.25934C8.59053 9.25934 7.81484 10.035 7.81484 10.9919V13.0133H7.2373C7.71575 13.0133 8.1036 13.4011 8.1036 13.8796C8.1036 14.358 7.71575 14.7459 7.2373 14.7459H8.68113C9.15958 14.7459 9.54743 14.358 9.54743 13.8796V9.25934Z" fill="#A5C3DC"/>
<path d="M6.66003 14.1682H6.37127V13.8795C6.37127 13.72 6.24197 13.5907 6.0825 13.5907H4.92744C4.76797 13.5907 4.63867 13.72 4.63867 13.8795V14.457C4.63867 14.6165 4.76797 14.7458 4.92744 14.7458H7.23756C7.23756 14.4268 6.97901 14.1682 6.66003 14.1682Z" fill="#FAB991"/>
<path d="M17.6332 14.7458H15.0343C14.5558 14.7458 14.168 14.3579 14.168 13.8795C14.168 13.401 14.5558 13.0132 15.0343 13.0132H17.6332C18.1116 13.0132 18.4995 13.401 18.4995 13.8795C18.4995 14.3579 18.1116 14.7458 17.6332 14.7458Z" fill="#F0915A"/>
<path d="M18.7877 13.5907H17.6326C17.4731 13.5907 17.3438 13.72 17.3438 13.8795V14.1682H17.0551C16.7361 14.1682 16.4775 14.4268 16.4775 14.7458H18.7877C18.9471 14.7458 19.0764 14.6165 19.0764 14.457V13.8795C19.0764 13.72 18.9471 13.5907 18.7877 13.5907Z" fill="#FAB991"/>
<path d="M10.1254 6.94907V5.79401C9.80641 5.79401 9.54785 6.05256 9.54785 6.37154C9.54785 6.69052 9.80641 6.94907 10.1254 6.94907Z" fill="#F0915A"/>
<path d="M13.5898 6.94907V5.79401C13.9088 5.79401 14.1674 6.05256 14.1674 6.37154C14.1674 6.69052 13.9088 6.94907 13.5898 6.94907Z" fill="#F0915A"/>
<path d="M15.6118 13.8796C15.6118 13.4011 15.9996 13.0133 16.4781 13.0133H15.9006V10.9919C15.9006 10.035 15.1249 9.25934 14.168 9.25934V13.8796C14.168 14.358 14.5558 14.7459 15.0343 14.7459H16.4781C15.9996 14.7459 15.6118 14.358 15.6118 13.8796Z" fill="#A5C3DC"/>
<path d="M16.7673 4.06128C16.6078 4.06128 16.4785 4.19057 16.4785 4.35005V5.21634H17.056V4.35005C17.056 4.19057 16.9268 4.06128 16.7673 4.06128Z" fill="#FFD205"/>
<path d="M17.056 5.79388H16.4785V6.66018C16.4785 6.81965 16.6078 6.94895 16.7673 6.94895C16.9268 6.94895 17.056 6.81965 17.056 6.66018V5.79388Z" fill="#FFD205"/>
<path d="M15.3232 5.50532C15.3232 5.66479 15.4525 5.79408 15.612 5.79408H16.4783V5.21655H15.612C15.4525 5.21655 15.3232 5.34585 15.3232 5.50532Z" fill="#FFD205"/>
<path d="M17.0557 5.21655V5.79408H17.922C18.0814 5.79408 18.2107 5.66479 18.2107 5.50532C18.2107 5.34585 18.0814 5.21655 17.922 5.21655H17.0557Z" fill="#FFD205"/>
<path d="M19.0769 9.54742C18.9174 9.54742 18.7881 9.67672 18.7881 9.83619V10.4137H19.3656V9.83619C19.3656 9.67672 19.2363 9.54742 19.0769 9.54742Z" fill="#FFD205"/>
<path d="M19.3656 10.9915H18.7881V11.569C18.7881 11.7285 18.9174 11.8578 19.0769 11.8578C19.2363 11.8578 19.3656 11.7285 19.3656 11.569V10.9915Z" fill="#FFD205"/>
<path d="M17.9219 10.703C17.9219 10.8625 18.0512 10.9918 18.2106 10.9918H18.7882V10.4142H18.2106C18.0512 10.4142 17.9219 10.5435 17.9219 10.703Z" fill="#FFD205"/>
<path d="M19.3652 10.4142V10.9918H19.9428C20.1022 10.9918 20.2315 10.8625 20.2315 10.703C20.2315 10.5435 20.1022 10.4142 19.9428 10.4142H19.3652Z" fill="#FFD205"/>
<path d="M16.9107 9.548C17.1499 9.548 17.3438 9.35407 17.3438 9.11485C17.3438 8.87563 17.1499 8.6817 16.9107 8.6817C16.6715 8.6817 16.4775 8.87563 16.4775 9.11485C16.4775 9.35407 16.6715 9.548 16.9107 9.548Z" fill="#FAA019"/>
<path d="M6.94892 4.06152C7.10839 4.06152 7.23769 4.19082 7.23769 4.35029V5.21659H6.66016V4.35029C6.66016 4.19082 6.78945 4.06152 6.94892 4.06152Z" fill="#FFD205"/>
<path d="M6.66016 5.79401H7.23769V6.6603C7.23769 6.81977 7.10839 6.94907 6.94892 6.94907C6.78945 6.94907 6.66016 6.81977 6.66016 6.6603V5.79401Z" fill="#FFD205"/>
<path d="M8.39237 5.50556C8.39237 5.66503 8.26307 5.79433 8.1036 5.79433H7.2373V5.2168H8.1036C8.26307 5.2168 8.39237 5.34609 8.39237 5.50556Z" fill="#FFD205"/>
<path d="M6.65995 5.2168V5.79433H5.79365C5.63418 5.79433 5.50488 5.66503 5.50488 5.50556C5.50488 5.34609 5.63418 5.2168 5.79365 5.2168H6.65995Z" fill="#FFD205"/>
<path d="M4.63838 9.54742C4.79785 9.54742 4.92714 9.67672 4.92714 9.83619V10.4137H4.34961V9.83619C4.34961 9.67672 4.4789 9.54742 4.63838 9.54742Z" fill="#FFD205"/>
<path d="M4.34961 10.9915H4.92714V11.569C4.92714 11.7285 4.79785 11.8578 4.63838 11.8578C4.4789 11.8578 4.34961 11.7285 4.34961 11.569V10.9915Z" fill="#FFD205"/>
<path d="M5.79306 10.703C5.79306 10.8625 5.66376 10.9918 5.50429 10.9918H4.92676V10.4142H5.50429C5.66376 10.4142 5.79306 10.5435 5.79306 10.703Z" fill="#FFD205"/>
<path d="M4.3497 10.4142V10.9918H3.77216C3.61269 10.9918 3.4834 10.8625 3.4834 10.703C3.4834 10.5435 3.61269 10.4142 3.77216 10.4142H4.3497Z" fill="#FFD205"/>
<path d="M6.80424 9.548C7.04346 9.548 7.23739 9.35407 7.23739 9.11485C7.23739 8.87563 7.04346 8.6817 6.80424 8.6817C6.56502 8.6817 6.37109 8.87563 6.37109 9.11485C6.37109 9.35407 6.56502 9.548 6.80424 9.548Z" fill="#FAA019"/>
</g>
<defs>
<clipPath id="clip0_40000017_5400">
<rect width="24" height="24" fill="white"/>
</clipPath>
</defs>
</svg>
