<svg width="24" height="24" viewBox="0 0 24 24" fill="none" xmlns="http://www.w3.org/2000/svg">
<g clip-path="url(#clip0_40000017_3029)">
<path d="M24 12C24 18.6275 18.6275 24 12 24C5.3725 24 0 18.6275 0 12C0 5.3725 5.3725 0 12 0C18.6275 0 24 5.3725 24 12Z" fill="#FF7373"/>
<path d="M5.97456 16.174C5.97329 16.174 5.97205 16.174 5.97081 16.174C5.38702 16.1612 4.79328 16.1263 4.20609 16.0703C4.11175 16.0613 4.04255 15.9775 4.05157 15.8831C4.06059 15.7888 4.14458 15.7197 4.23873 15.7286C4.81567 15.7837 5.39899 15.818 5.9725 15.8307L9.25408 15.6773C9.767 15.6177 10.2861 15.5401 10.7974 15.4465L13.9713 14.6352C14.4646 14.472 14.9573 14.2909 15.4361 14.097L18.3887 12.6568C18.8863 12.3702 19.3817 12.0601 19.8611 11.7351C19.9395 11.682 20.0463 11.7025 20.0994 11.7809C20.1526 11.8594 20.1321 11.9661 20.0536 12.0192C19.5657 12.35 19.0614 12.6655 18.5548 12.9572C18.5514 12.9591 18.5479 12.9609 18.5444 12.9627L15.5812 14.4081C15.5776 14.4098 15.574 14.4114 15.5704 14.4129C15.0812 14.6111 14.5776 14.7962 14.0734 14.9628C14.0697 14.9641 14.0659 14.9652 14.0621 14.9662L10.8766 15.7805C10.8728 15.7814 10.8689 15.7823 10.865 15.783C10.3426 15.8787 9.81196 15.9581 9.28774 16.0189C9.28383 16.0194 9.27986 16.0197 9.27596 16.0199L5.98259 16.1738C5.97989 16.1739 5.97723 16.174 5.97456 16.174Z" fill="#CEC4BC"/>
<path d="M18.0778 9.70607C18.0758 9.70607 18.0739 9.70604 18.072 9.70598L14.7769 9.59477C14.773 9.59465 14.769 9.59436 14.7651 9.59398C14.2401 9.54 13.7084 9.46754 13.1849 9.37859C13.181 9.37793 13.1771 9.37716 13.1733 9.37621L9.97754 8.60332C9.97369 8.6024 9.96988 8.60132 9.9661 8.60011C9.45963 8.43995 8.95366 8.26139 8.46214 8.0696C8.45846 8.06817 8.45487 8.06661 8.45128 8.06493L5.46961 6.6581C5.46609 6.65642 5.46257 6.65464 5.45917 6.6527C4.94856 6.36752 4.44021 6.05852 3.94828 5.73428C3.86915 5.68211 3.84727 5.57567 3.89944 5.49657C3.95158 5.41744 4.05796 5.39553 4.13715 5.44774C4.62048 5.76629 5.11981 6.06989 5.62143 6.35022L8.59246 7.752C9.07344 7.93957 9.56848 8.11418 10.064 8.27111L13.2482 9.04121C13.7606 9.12812 14.2807 9.19902 14.7944 9.25196L18.0777 9.36275C18.6506 9.34268 19.2334 9.30076 19.81 9.23821C19.9041 9.22789 19.9889 9.2961 19.9991 9.39028C20.0093 9.48449 19.9412 9.56915 19.847 9.57937C19.2602 9.64307 18.6669 9.68565 18.0838 9.70595C18.0818 9.70601 18.0798 9.70607 18.0778 9.70607Z" fill="#CEC4BC"/>
<path d="M5.8252 15.5965L7.74599 18.6064L9.39209 15.4378L5.8252 15.5965Z" fill="#31D9CD"/>
<path d="M14.6553 9.0144L16.3423 12.161L18.2239 9.1265L14.6553 9.0144Z" fill="#31D9CD"/>
<path d="M9.93848 7.99371L10.947 11.4189L13.4092 8.83291L9.93848 7.99371Z" fill="#FF2A05"/>
<path d="M15.2832 13.9321L18.248 15.9219L18.4891 12.3595L15.2832 13.9321Z" fill="#FF2A05"/>
<path d="M10.6367 15.24L13.1323 17.7939L14.0959 14.3559L10.6367 15.24Z" fill="#C4FF46"/>
<path d="M5.52051 6.05444L5.8074 9.61343L8.74617 7.5854L5.52051 6.05444Z" fill="#C4FF46"/>
</g>
<defs>
<clipPath id="clip0_40000017_3029">
<rect width="24" height="24" fill="white"/>
</clipPath>
</defs>
</svg>
